<svg id="birdscloud" xmlns="http://www.w3.org/2000/svg" xmlns:xlink="http://www.w3.org/1999/xlink" viewBox="0 0 902.030000 334.270000" shape-rendering="geometricPrecision" text-rendering="geometricPrecision"><path id="birdscloud-sky" d="M-71.703254,0L-71.703254,108.710000C-71.703254,108.710000,50.376838,156.170000,264.569629,108.710000C264.569629,108.710000,537.967960,60.040000,639.253189,74.640000C639.253189,74.640000,777.855227,109.930000,830.679877,114.800000L830.679877,0Z" transform="matrix(1 0 0 1 71.32548642000000 -0.00000000499987)" fill="rgba(250,133,142,0.16)" stroke="none" stroke-width="1"/><path id="birdscloud-bird17" d="M-15.136723,-13.696225C-16.004096,-14.078306,-16.763359,-14.669225,-17.346723,-15.416225C-19.469134,-17.855178,-21.102182,-20.679910,-22.156723,-23.736225C-22.915510,-25.552373,-23.134256,-27.548862,-22.786723,-29.486225C-23.646723,-29.186225,-24.306723,-28.936225,-24.306723,-28.166225C-24.323120,-28.013180,-24.394125,-27.871170,-24.506723,-27.766225C-25.352167,-27.164041,-26.010694,-26.335684,-26.406723,-25.376225C-26.450511,-25.255825,-26.552020,-25.165595,-26.676723,-25.136225C-27.676723,-24.996225,-27.996723,-24.216225,-28.606723,-23.716225C-30.344785,-22.367648,-32.194840,-21.169963,-34.136723,-20.136225C-34.326723,-20.536225,-33.996723,-20.736225,-33.846723,-20.966225C-31.926606,-23.745894,-30.505364,-26.838788,-29.646723,-30.106225C-29.291845,-31.652196,-28.683632,-33.128802,-27.846723,-34.476225C-27.556723,-34.916225,-27.666723,-35.146225,-28.126723,-35.476225C-30.416723,-37.056225,-30.746723,-37.176225,-34.856723,-37.476225C-34.206724,-38.037336,-33.400686,-38.386270,-32.546723,-38.476225C-31.831733,-38.564629,-31.147063,-38.817957,-30.546723,-39.216225C-30.109713,-39.524163,-29.580100,-39.672454,-29.046723,-39.636225C-28.645494,-39.663400,-28.242621,-39.619389,-27.856723,-39.506225C-25.514888,-38.624937,-22.965023,-38.454482,-20.526723,-39.016225C-19.445797,-39.257627,-18.320930,-38.871075,-17.616723,-38.016225C-16.455011,-36.951408,-15.161041,-36.040587,-13.766723,-35.306225C-12.276723,-34.376225,-10.466723,-34.526225,-8.706723,-34.676225C-7.996723,-34.736225,-7.276723,-34.846225,-6.566723,-34.846225C-5.406723,-34.846225,-4.986723,-34.366225,-5.426723,-33.496225C-5.656723,-33.046225,-5.676723,-32.776225,-5.226723,-32.496225C-5.120987,-32.435636,-5.055764,-32.323090,-5.055764,-32.201225C-5.055764,-32.079360,-5.120987,-31.966814,-5.226723,-31.906225C-5.756723,-31.536225,-5.526723,-31.216225,-5.226723,-30.906225C-5.127727,-30.782689,-5.037506,-30.652370,-4.956723,-30.516225C-4.816723,-30.326225,-4.686723,-30.086225,-4.846723,-29.896225C-5.006723,-29.706225,-5.416723,-29.756225,-5.716723,-29.836225L-11.306723,-31.406225C-11.993937,-31.591577,-12.697012,-31.712104,-13.406723,-31.766225C-14.106723,-31.826225,-14.276723,-31.576225,-14.236723,-31.086225C-14.236723,-30.936225,-14.306723,-30.776225,-14.236723,-30.646225C-13.656723,-29.196225,-13.966723,-27.736225,-14.056723,-26.256225C-14.116723,-25.376225,-14.736723,-24.606225,-14.526723,-23.716225C-14.521918,-23.562310,-22.443492,-28.282273,-22.544712,-28.166225C-23.156151,-27.177880,-15.584608,-21.156972,-15.526723,-19.996225C-15.675315,-18.199231,-15.587905,-16.390516,-15.266723,-14.616225C-15.136723,-14.266225,-15.006723,-14.016225,-15.136723,-13.696225Z" transform="matrix(1 0 0 1 896.46047590499984 126.40929478999993)" fill="rgb(30,30,30)" stroke="none" stroke-width="1"/><path id="birdscloud-bird16" d="M378.231046,359.504197C378.591046,360.024197,379.391046,360.214197,379.691046,360.974197C377.421046,360.744197,375.301046,359.974197,373.101046,360.704197C373.601046,362.134197,374.101046,363.554197,374.591046,364.974197C374.800846,365.455668,374.800846,366.002726,374.591046,366.484197C374.371046,366.894197,374.491046,367.144197,374.781046,367.484197C375.518600,368.270148,376.059979,369.219274,376.361046,370.254197C376.569673,371.012897,376.267102,371.819753,375.611046,372.254197C375.037390,371.601171,374.408385,370.998932,373.731046,370.454197C372.088243,369.054248,370.085753,368.143080,367.951046,367.824197C366.679574,367.787039,365.549985,367.002602,365.071046,365.824197C364.901046,365.344197,364.591046,365.294197,364.071046,365.414197C362.850102,365.707246,361.585448,365.771665,360.341046,365.604197C358.667572,365.374325,356.964459,365.686212,355.481046,366.494197C355.151046,366.664197,354.821046,366.804197,354.291046,367.054197C354.460305,366.438586,354.834158,365.898967,355.351046,365.524197C355.837091,365.193900,356.210463,364.722823,356.421046,364.174197C356.734527,363.451058,357.360229,362.910009,358.121046,362.704197C358.601046,362.514197,359.121046,362.364197,359.671046,362.174197C358.928439,360.434466,357.317898,359.219897,355.441046,358.984197C354.562200,358.808870,353.667070,358.728409,352.771046,358.744197C350.793008,358.774704,348.860024,358.152635,347.271046,356.974197C345.207581,355.516889,343.464997,353.651780,342.151046,351.494197C341.851046,350.984197,341.341046,350.364197,341.891046,349.864197C342.441046,349.364197,343.251046,349.694197,343.891046,349.864197C347.081046,350.934197,350.221046,352.114197,353.471046,353.064197L355.861046,353.804197C356.549913,354.116046,357.318462,354.206874,358.061046,354.064197C358.261046,354.014197,358.601046,353.974197,358.711046,354.064197C359.331046,354.564197,360.031046,354.244197,360.711046,354.244197C360.843019,354.217258,360.979073,354.217258,361.111046,354.244197C361.791980,354.640033,362.563489,354.853576,363.351046,354.864197C363.755113,354.979229,364.171303,355.046357,364.591046,355.064197C365.027154,355.022656,365.459258,355.176456,365.771046,355.484197C366.351046,356.044197,367.451046,356.204197,367.651046,357.074197C368.323439,357.173803,368.930088,357.532767,369.341046,358.074197C369.571046,358.364197,369.921046,358.074197,370.181046,357.994197C371.731421,357.473760,373.324074,357.088980,374.941046,356.844197C375.958609,356.782547,376.979706,356.816026,377.991046,356.944197C378.351046,356.944197,378.811046,357.164197,378.801046,357.434197C378.801046,357.954197,379.001046,358.244197,379.581046,358.434197C379.811046,358.524197,379.681046,358.774197,379.481046,358.884197C379.081046,359.114197,378.671046,359.294197,378.231046,359.504197Z" transform="matrix(1 0 0 1 522.32678421000230 -225.54852562000011)" opacity="0" fill="rgb(30,30,30)" stroke="none" stroke-width="1"/><g id="birdscloud-groupofbirds" transform="matrix(1 0 0 1 224.19816202000084 -135.97878167000067)"><path id="birdscloud-bird15" d="M436.803168,351.323052C437.583168,350.723052,438.353168,350.113052,439.143168,349.513052C439.498259,349.132406,439.992691,348.912258,440.513168,348.903052C440.597162,349.568789,440.576919,350.243548,440.453168,350.903052C440.113480,352.386194,439.699627,353.851367,439.213168,355.293052C438.823168,356.153052,438.003168,356.933052,438.393168,357.963052C437.763168,358.693052,438.633168,359.713052,437.693168,360.383052C437.903168,360.953052,437.553168,361.553052,437.633168,362.043052C437.743168,362.713052,437.873168,363.233052,437.193168,363.703052C437.983168,364.553052,437.023168,365.233052,436.783168,365.933052C436.543168,366.633052,436.783168,367.763052,435.783168,368.453052C436.841579,368.870737,438.007629,368.930444,439.103168,368.623052C439.753168,368.483052,440.393168,368.303052,441.053168,368.193052C441.473168,368.123052,441.923168,368.193052,441.963168,368.623052C442.027188,369.670282,442.419014,370.670839,443.083168,371.483052C441.233168,371.483052,439.653168,371.053052,437.923168,370.963052C438.449519,371.692183,439.133033,372.293676,439.923168,372.723052C438.885765,372.688443,437.893999,372.288194,437.123168,371.593052C436.506628,371.115373,435.728295,370.896578,434.953168,370.983052C432.676899,371.075042,430.398810,370.852954,428.183168,370.323052C427.664458,370.225681,427.158065,370.071416,426.673168,369.863052C425.200281,369.048451,423.468832,368.836949,421.843168,369.273052C421.943168,368.773052,422.323168,368.643052,422.643168,368.483052C423.358649,368.230712,424.032673,367.873479,424.643168,367.423052C425.097913,367.135794,425.644846,367.032127,426.173168,367.133052C426.703168,367.183052,427.233168,367.263052,427.763168,367.323052C429.483168,367.483052,430.643168,366.783052,430.903168,365.383052C431.037045,364.543077,431.016713,363.685736,430.843168,362.853052C430.743168,362.313052,430.613168,361.773052,430.493168,361.233052C430.245570,360.133631,430.439479,358.980948,431.033168,358.023052C432.294561,355.884772,433.880087,353.955154,435.733168,352.303052C436.103168,351.983052,436.453168,351.653052,436.803168,351.323052Z" transform="matrix(1 0 0 1 -133.92206703999994 -143.33638368000018)" fill="rgb(30,30,30)" stroke="none" stroke-width="1"/><path id="birdscloud-bird14" d="M427.306485,396.763051C427.426485,397.083051,427.936485,397.203051,427.896485,397.653051C427.251108,397.564365,426.615149,397.417090,425.996485,397.213051C425.380905,397.089872,424.749551,397.066238,424.126485,397.143051C424.002373,397.725704,424.094805,398.333617,424.386485,398.853051C424.573565,399.672667,424.482076,400.531261,424.126485,401.293051C424.036485,401.573051,423.806485,401.903051,423.356485,401.613051C422.294526,401.099913,421.156451,400.762206,419.986485,400.613051C419.426485,400.463051,418.836485,400.363051,418.646485,399.813051C418.546485,399.523051,418.286485,399.533051,418.016485,399.553051C417.038144,399.633701,416.053217,399.562867,415.096485,399.343051C414.651948,399.261094,414.193769,399.295543,413.766485,399.443051L412.126485,399.933051C412.947631,398.656779,414.178312,397.697623,415.616485,397.213051C415.174556,395.871486,413.918952,394.967128,412.506485,394.973051C408.566485,394.663051,407.126485,392.273051,405.786485,389.773051C405.693663,389.572831,405.649136,389.353618,405.656485,389.133051C405.656485,388.803051,405.896485,388.663051,406.276485,388.723051C406.790591,388.823918,407.286296,389.002641,407.746485,389.253051C409.626485,390.193051,411.626485,390.943051,413.516485,391.843051C414.360784,392.190709,415.255585,392.400058,416.166485,392.463051C417.326485,392.603051,418.226485,393.223051,419.376485,393.323051C419.911358,393.434273,420.377453,393.759456,420.666485,394.223051C420.946485,394.563051,421.396485,394.753051,421.666485,395.073051C421.936485,395.393051,422.316485,395.383051,422.716485,395.313051C423.286485,395.213051,423.866485,395.143051,424.416485,395.013051C425.253627,394.880975,426.107966,394.904707,426.936485,395.083051C427.500234,395.225311,427.950350,395.648950,428.126485,396.203051C428.096485,396.623051,427.436485,396.483051,427.306485,396.763051Z" transform="matrix(1 0 0 1 -93.41460187499956 -113.86077000000000)" fill="rgb(30,30,30)" stroke="none" stroke-width="1"/><path id="birdscloud-bird13" d="M475.390233,357.603433C477.050233,356.893433,478.500233,355.793433,480.520233,356.143433C480.720233,355.743433,480.330233,355.643433,480.120233,355.493433C478.391375,354.186056,476.186043,353.680213,474.060233,354.103433C472.227182,354.515134,470.346294,354.673277,468.470233,354.573433C467.783863,354.582096,467.103061,354.449340,466.470233,354.183433C466.680233,353.773433,467.160233,353.823433,467.470233,353.763433C469.472108,353.467913,471.421687,352.888764,473.260233,352.043433C473.824069,351.784150,474.439840,351.657575,475.060233,351.673433C477.379819,351.606142,479.694519,351.923779,481.910233,352.613433L482.400233,352.753433C482.470233,352.673433,482.560233,352.613433,482.550233,352.563433C482.190233,350.993433,483.000233,349.813433,484.350233,348.753433C486.475424,347.122378,488.714461,345.645282,491.050233,344.333433C491.230760,344.204117,491.465418,344.177624,491.670233,344.263433C491.805991,344.882857,491.746604,345.529123,491.500233,346.113433C491.016123,347.241266,490.412686,348.314043,489.700233,349.313433C489.282260,349.895825,489.061506,350.596630,489.070233,351.313433C489.041465,352.748880,488.927934,354.181375,488.730233,355.603433C488.650233,356.383433,488.670233,356.393433,489.590233,356.403433C490.510233,356.413433,491.290233,356.403433,492.140233,356.403433C492.676927,356.406697,493.211094,356.477247,493.730233,356.613433C493.950233,356.663433,494.190233,356.763433,494.180233,356.973433C494.241919,357.680362,494.369132,358.380034,494.560233,359.063433C494.620233,359.563433,494.380233,359.743433,493.800233,359.583433C491.792685,359.112114,489.705225,359.095032,487.690233,359.533433C485.796477,359.888426,483.857170,359.928969,481.950233,359.653433C480.778750,359.510493,479.648908,359.129341,478.630233,358.533433C477.678350,357.883064,476.542143,357.556931,475.390233,357.603433Z" transform="matrix(1 0 0 1 -131.75834986999990 -116.40925040499999)" fill="rgb(30,30,30)" stroke="none" stroke-width="1"/><path id="birdscloud-bird12" d="M538.949123,363.863655C538.710249,365.035696,538.375798,366.186207,537.949123,367.303655C537.923668,367.408803,537.923668,367.518507,537.949123,367.623655C538.049123,368.623655,537.279123,369.243655,536.419123,369.743655C536.069123,369.953655,535.899123,370.243655,535.599123,370.453655C534.939123,370.923655,534.529123,370.833655,534.309123,370.163655C534.040508,369.491974,533.705514,368.848785,533.309123,368.243655C533.029123,367.743655,532.739123,367.243655,532.489123,366.733655C532.018158,365.952850,532.197693,364.944034,532.909123,364.373655C533.119123,364.183655,533.289123,363.973655,533.489123,363.753655C533.109123,363.403655,532.569123,363.433655,532.139123,363.253655C531.486522,363.066567,530.889310,362.723342,530.399123,362.253655C529.799489,361.550542,528.863117,361.232022,527.959123,361.423655C527.756136,361.440445,527.552110,361.440445,527.349123,361.423655C528.849123,360.423655,530.179123,359.493655,532.239123,360.183655C532.169347,359.606352,531.851767,359.088003,531.369123,358.763655C530.468787,357.934531,529.438412,357.258875,528.319123,356.763655C526.887502,356.307416,525.908594,354.986091,525.889123,353.483655C525.889123,352.143655,525.589123,350.803655,525.679123,349.343655C527.499123,350.023655,529.149123,350.643655,530.139123,352.093655C530.983693,353.357531,531.940932,354.542366,532.999123,355.633655C533.546894,356.209867,534.157350,356.723053,534.819123,357.163655C535.797803,357.649255,536.501176,358.555169,536.729123,359.623655C536.859123,360.623655,537.509123,361.153655,538.729123,361.343655C539.618645,361.445257,540.515125,361.472017,541.409123,361.423655C542.489123,361.423655,542.759123,361.703655,542.509123,362.573655C542.459123,362.753655,542.329123,362.913655,542.509123,363.053655C543.209123,363.563655,542.749123,364.313655,543.099123,364.913655C543.156521,365.042842,543.154055,365.190761,543.092382,365.317962C543.030708,365.445164,542.916100,365.538711,542.779123,365.573655C542.499123,365.673655,542.289123,365.483655,542.099123,365.323655C541.178958,364.595377,540.099571,364.095090,538.949123,363.863655Z" transform="matrix(1 0 0 1 -137.80183399999999 -108.46611724000002)" fill="rgb(30,30,30)" stroke="none" stroke-width="1"/><path id="birdscloud-bird11" d="M573.512399,344.332465C574.462812,343.763038,575.333703,343.070360,576.102399,342.272465C577.088926,341.230040,578.208572,340.322219,579.432399,339.572465C579.902399,339.292465,579.862399,339.062465,579.702399,338.652465C579.253715,337.571135,578.419958,336.694621,577.362399,336.192465C576.935975,336.046200,576.549208,335.803187,576.232399,335.482465C576.705232,335.451685,577.179566,335.451685,577.652399,335.482465C578.427618,335.669446,579.228430,335.726888,580.022399,335.652465C580.594271,335.608397,581.159898,335.795738,581.592399,336.172465C581.952399,336.442465,582.272399,336.762465,582.592399,337.042465C583.359817,337.730949,584.306186,338.188534,585.322399,338.362465C586.524831,338.436392,587.536661,339.289743,587.812399,340.462465C588.452399,342.462465,589.562399,344.342465,592.412399,344.902465C592.755927,344.974166,593.091064,345.081410,593.412399,345.222465C594.312399,345.592465,594.272399,345.842465,593.762399,346.572465C593.217356,347.135824,592.885064,347.871108,592.822399,348.652465C592.822399,348.782465,592.822399,348.952465,592.662399,349.032465C592.457196,349.116642,592.221063,349.055573,592.082399,348.882465C591.082399,348.042465,590.082399,347.182465,589.082399,346.332465C588.748885,346.022215,588.371504,345.762765,587.962399,345.562465C587.312399,345.262465,586.962399,345.332465,586.792399,345.922465C585.987992,347.972511,584.596562,349.739628,582.792399,351.002465C582.031772,351.627114,581.414466,352.408125,580.982399,353.292465C580.234044,354.306111,579.612746,355.407656,579.132399,356.572465C577.292399,354.742465,577.962399,348.352465,580.422399,344.282465C580.031191,344.092884,579.562315,344.177766,579.262399,344.492465C578.894226,344.863164,578.403666,345.087115,577.882399,345.122465C577.752399,345.122465,577.562399,345.122465,577.502399,345.192465C576.972399,345.822465,576.112399,345.822465,575.332399,346.032465C574.274990,346.343914,573.199688,346.591033,572.112399,346.772465C571.232399,346.902465,570.342399,347.002465,569.112399,347.152465C570.692399,346.052465,572.292399,345.402465,573.512399,344.332465Z" transform="matrix(1 0 0 1 -165.54622891999992 -137.49498255499998)" fill="rgb(30,30,30)" stroke="none" stroke-width="1"/><path id="birdscloud-bird10" d="M616.868489,342.103612C614.198489,340.863612,612.158489,336.803612,612.498489,333.373612C612.168489,333.373612,611.768489,333.483612,611.748489,333.653612C611.658489,334.563612,610.658489,335.023612,610.198489,335.753612C609.622642,336.482704,608.882489,337.065232,608.038489,337.453612C607.474222,337.769856,606.872986,338.015053,606.248489,338.183612C606.738489,336.703612,607.248489,335.313612,607.638489,333.903612C607.943533,332.507978,608.441661,331.161686,609.118489,329.903612C609.318489,329.583612,609.208489,329.403612,608.918489,329.153612C607.962352,328.392735,606.789344,327.955045,605.568489,327.903612C605.231132,327.937103,604.890500,327.899633,604.568489,327.793612C604.718489,327.443612,605.108489,327.383612,605.418489,327.303612C606.182176,327.148578,606.921949,326.893020,607.618489,326.543612C608.193879,326.283928,608.853099,326.283928,609.428489,326.543612C610.854793,327.074416,612.405457,327.175244,613.888489,326.833612C614.661693,326.613646,615.492622,326.854382,616.028489,327.453612C616.792724,328.150347,617.638951,328.751437,618.548489,329.243612C619.511547,329.813254,620.649215,330.012346,621.748489,329.803612C622.409599,329.696981,623.078971,329.650125,623.748489,329.663612C624.158489,329.663612,624.598489,329.953612,624.418489,330.193612C623.968489,330.773612,624.778489,331.303612,624.418489,331.843612C624.208489,332.133612,624.568489,332.303612,624.688489,332.523612C624.808489,332.743612,624.898489,332.873612,624.748489,333.043612C624.598489,333.213612,624.348489,333.113612,624.138489,333.043612L620.968489,332.143612L620.068489,331.903612C618.638489,331.613612,618.538489,331.743612,618.648489,332.903612C618.844997,334.605415,618.593350,336.329028,617.918489,337.903612C617.568683,338.840653,617.340162,339.818588,617.238489,340.813612C617.218086,341.266688,617.091335,341.708601,616.868489,342.103612Z" transform="matrix(1 0 0 1 -150.32662966499987 -93.05141243999989)" fill="rgb(30,30,30)" stroke="none" stroke-width="1"/><path id="birdscloud-bird9" d="M661.111168,368.983615C660.891092,367.231621,659.934429,365.656584,658.481168,364.653615C657.951767,364.369768,657.671288,363.772226,657.791168,363.183615C657.891168,362.703615,657.651168,362.533615,657.131168,362.423615C656.746656,362.357215,656.377358,362.221693,656.041168,362.023615C654.798507,361.171120,653.304737,360.762447,651.801168,360.863615C653.151168,360.453615,654.131168,359.353615,655.801168,359.613615C656.281168,359.683615,656.431168,359.493615,656.431168,359.123615C656.426516,358.337827,656.057007,357.598809,655.431168,357.123615C655.090155,356.816184,654.706110,356.560154,654.291168,356.363615C652.661374,355.739340,651.475033,354.310425,651.161168,352.593615C650.826161,351.537726,650.737225,350.419176,650.901168,349.323615C650.951168,349.083615,650.961168,348.783615,651.311168,348.673615C651.661168,348.563615,651.981168,348.813615,652.211168,349.023615C652.591168,349.383615,652.961168,349.753615,653.301168,350.143615C654.591168,351.593615,656.051168,352.943615,657.421168,354.353615C657.826826,354.646007,658.262647,354.894090,658.721168,355.093615C659.721168,355.763615,660.721168,356.493615,661.721168,357.173615C662.101168,357.433615,662.051168,357.843615,662.321168,358.173615C662.441168,358.303615,662.431168,358.523615,662.491168,358.693615C662.781168,359.493615,663.051168,360.203615,664.401168,360.243615C665.586353,360.276495,666.741894,360.621433,667.751168,361.243615C668.226875,361.590533,668.434696,362.198011,668.271168,362.763615C668.081168,363.053615,667.681168,362.843615,667.371168,362.993615C667.061168,363.143615,667.421168,363.293615,667.451168,363.463615C667.481168,363.633615,667.551168,363.743615,667.451168,363.903615C667.341168,363.903615,667.181168,363.903615,667.111168,363.833615C666.294874,363.076822,665.295310,362.546019,664.211168,362.293615C663.761168,362.843615,663.831168,363.493615,663.581168,364.063615C663.331168,364.633615,663.341168,365.383615,662.651168,365.843615C662.351168,366.043615,662.531168,366.323615,662.511168,366.563615C662.501425,367.042338,662.461345,367.519963,662.391168,367.993615C662.243676,368.579189,661.715015,368.988075,661.111168,368.983615Z" transform="matrix(1 0 0 1 -223.07523669499949 -105.58234220499821)" fill="rgb(30,30,30)" stroke="none" stroke-width="1"/><path id="birdscloud-bird8" d="M675.081984,355.341397C675.847017,355.009679,676.594653,354.639198,677.321984,354.231397C677.651984,354.351397,677.521984,354.681397,677.731984,354.861397C677.681454,356.761851,676.647791,358.499768,675.001984,359.451397C674.339338,359.921546,673.740942,360.476239,673.221984,361.101397C672.591654,361.655327,672.242990,362.462759,672.271984,363.301397C672.292104,364.334662,671.936804,365.340161,671.271984,366.131397C671.186785,366.253735,671.151057,366.403791,671.171984,366.551397C671.171984,366.921397,671.281984,367.301397,670.741984,367.501397C670.681984,367.501397,670.611984,367.611397,670.621984,367.661397C670.781984,368.441397,670.241984,369.051397,669.821984,369.661397C670.904702,370.122181,672.057707,370.396062,673.231984,370.471397C673.711984,370.541397,674.411984,370.661397,673.521984,371.171397C673.311984,371.291397,673.451984,371.411397,673.521984,371.541397C673.601984,372.001397,673.691984,372.461397,673.751984,372.921397C673.783907,373.167075,673.623612,373.396688,673.381984,373.451397C673.165839,373.491950,672.943846,373.420461,672.791984,373.261397C672.531984,373.061397,672.281984,372.841397,672.011984,372.651397C671.481178,372.286314,670.893072,372.012540,670.271984,371.841397C668.911984,371.431397,668.861984,371.461397,668.471984,372.601397C668.476389,372.634585,668.476389,372.668209,668.471984,372.701397C668.161984,373.281397,668.141984,373.801397,668.991984,374.081397C668.721984,374.351397,668.261984,374.021397,668.161984,374.391397C668.061984,374.761397,668.391984,375.041397,668.801984,375.251397C667.871984,375.191397,667.661984,375.071397,667.611984,374.391397C667.575359,373.694012,667.598778,372.994769,667.681984,372.301397C667.741984,371.821397,667.681984,371.581397,666.981984,371.531397C664.935422,371.397874,662.973644,370.663947,661.341984,369.421397C659.965936,368.356810,658.271703,367.786195,656.531984,367.801397C656.531984,367.401397,656.871984,367.391397,657.111984,367.341397C657.835346,367.222377,658.538711,367.003627,659.201984,366.691397C659.746948,366.474015,660.349105,366.445844,660.911984,366.611397C661.341984,366.691397,661.761984,366.841397,662.201984,366.921397C662.970841,367.125520,663.787572,366.854585,664.281984,366.231397C664.752320,365.727814,665.007126,365.060296,664.991984,364.371397C664.741984,362.191397,666.061984,360.651397,667.991984,359.371397C669.921984,358.091397,672.101984,357.021397,674.191984,355.881397C674.517853,355.754638,674.819053,355.571887,675.081984,355.341397Z" transform="matrix(1 0 0 1 -165.62475275999907 -105.03979420500008)" fill="rgb(30,30,30)" stroke="none" stroke-width="1"/><path id="birdscloud-bird7" d="M734.728655,390.736862C736.108655,390.068779,737.098655,389.052130,738.658655,389.284507C737.593446,387.784100,736.138899,387.013030,734.658655,387.164069C734.078655,387.164069,733.508655,387.410969,732.938655,387.541681C731.543535,387.911875,730.113775,387.911875,728.718655,387.541681C728.718655,386.975263,729.068655,387.047881,729.298655,386.989787C730.679154,386.660502,732.023955,386.069681,733.298655,385.232437C733.827302,384.897493,734.402861,384.748222,734.978655,384.796731C736.695075,384.797735,738.400202,385.199852,740.028655,385.987662C739.528655,383.605800,740.728655,382.342251,741.898655,381.064179C743.293251,379.566799,744.760391,378.217450,746.288655,377.026633C746.539566,377.686476,746.539566,378.487228,746.288655,379.147071C746.180718,379.672109,746.007903,380.164243,745.778655,380.599426C744.844969,382.326804,744.382167,384.493206,744.478655,386.684792C744.460430,387.590745,744.396929,388.493579,744.288655,389.386172C744.578655,389.778308,744.958655,389.618549,745.288655,389.633072C745.818655,389.633072,746.368655,389.633072,746.898655,389.633072C748.008655,389.720213,748.238655,389.981637,748.378655,391.303280C748.378655,391.492086,748.308655,391.680892,748.378655,391.913269C748.528655,393.002535,748.498655,393.046106,747.578655,392.770158C746.252071,392.459280,744.898222,392.488774,743.578655,392.857300C741.118655,393.394671,738.758655,393.380147,736.678655,391.404945C736.168655,390.925668,735.538655,391.056380,734.728655,390.736862Z" transform="matrix(1 0 0 1 -202.72878501500003 -104.40292364499919)" fill="rgb(30,30,30)" stroke="none" stroke-width="1"/><path id="birdscloud-bird6" d="M719.987005,325.430380C719.457234,324.178872,718.705085,323.033709,717.767005,322.050380C717.283227,321.518633,716.915426,320.892010,716.687005,320.210380C716.556895,320.013246,716.556895,319.757514,716.687005,319.560380C716.887005,319.210380,716.687005,318.790380,716.997005,318.470380C717.307005,318.150380,716.997005,317.990380,717.237005,317.790380C717.514602,316.824751,717.889873,315.889923,718.357005,315.000380C718.687005,314.420380,718.727005,314.380380,719.257005,314.730380C719.410711,314.859291,719.557578,314.996144,719.697005,315.140380C719.815294,315.333085,720.000406,315.475479,720.217005,315.540380C720.467005,316.000380,720.677005,316.480380,721.317005,316.690380C721.577005,317.050380,721.317005,317.490380,721.537005,317.850380C721.501187,318.412258,721.721803,318.960121,722.137005,319.340380C722.272648,319.535817,722.272648,319.794943,722.137005,319.990380C721.907005,320.360380,722.137005,320.630380,722.417005,320.880380C722.697005,321.130380,722.417005,321.360380,722.627005,321.560380L722.627005,321.560380C722.967005,321.900380,722.627005,322.350380,722.887005,322.700380C722.887005,323.070380,723.167005,323.300380,723.437005,323.540380C723.707005,323.780380,723.517005,324.040380,723.687005,324.260380C724.082573,324.846987,724.367276,325.501128,724.527005,326.190380C724.765407,326.514606,724.765407,326.956154,724.527005,327.280380C724.352662,327.709292,724.360800,328.190759,724.549539,328.613534C724.738278,329.036310,725.091288,329.363816,725.527005,329.520380C726.226888,329.844842,726.957097,330.099410,727.707005,330.280380C729.057005,330.710380,729.117005,330.830380,728.417005,331.890380C728.327688,332.008057,728.308587,332.164686,728.367005,332.300380C728.687005,332.980380,728.017005,333.550380,728.037005,334.200380C727.994694,334.452046,727.781980,334.639734,727.527005,334.650380C727.207005,334.650380,727.077005,334.480380,726.967005,334.270380C726.416610,333.292638,725.620315,332.475661,724.657005,331.900380C723.669112,333.043284,722.747598,334.241920,721.897005,335.490380C721.597005,336.040380,720.667005,335.930380,720.447005,336.490380C719.644488,336.637211,718.852714,336.837660,718.077005,337.090380C717.747005,337.150380,717.287005,337.090380,717.417005,336.610380C717.601894,335.672741,717.601894,334.708019,717.417005,333.770380C717.417005,333.440380,717.417005,333.110380,717.417005,332.770380C717.331413,331.705604,718.016269,330.730839,719.047005,330.450380C719.277005,330.360380,719.577005,330.310380,719.687005,330.020380C718.574817,329.414317,717.705893,328.442959,717.227005,327.270380C717.027005,326.660380,716.307005,326.410380,715.537005,326.360380C715.367005,326.260380,715.067005,326.210380,715.247005,325.940380C716.828639,325.395146,718.560115,325.484767,720.077005,326.190380C720.257005,325.960380,720.037005,325.690380,719.987005,325.430380Z" transform="matrix(1 0 0 1 -171.59729962500029 -89.80429194000007)" fill="rgb(30,30,30)" stroke="none" stroke-width="1"/><path id="birdscloud-bird5" d="M782.237343,326.467150C782.132549,326.861492,782.088708,327.269547,782.107343,327.677150C781.534610,327.577860,780.957198,327.507770,780.377343,327.467150C779.507343,327.407150,779.377343,327.467150,779.597343,328.177150C779.687343,328.497150,779.787343,328.817150,779.887343,329.177150C779.887343,329.317150,780.027343,329.467150,779.997343,329.597150C779.965161,330.000772,779.830964,330.389600,779.607343,330.727150C779.207343,331.147150,778.887343,330.517150,778.457343,330.507150C778.015010,330.472864,777.576610,330.399240,777.147343,330.287150C776.887343,330.237150,776.517343,330.287150,776.387343,330.117150C775.547343,329.267150,774.387343,329.737150,773.387343,329.507150C772.547343,329.317150,771.877343,329.807150,770.807343,330.047150C771.747343,329.327150,771.927343,328.397150,773.027343,328.117150C773.487343,327.997150,773.357343,327.757150,773.187343,327.517150C772.718297,326.838347,771.942376,326.437267,771.117343,326.447150C768.567343,326.447150,767.327343,325.057150,766.197343,323.507150C766.042437,323.288012,765.898914,323.061045,765.767343,322.827150C765.697343,322.607150,765.597343,322.377150,765.867343,322.187150C766.341235,322.208311,766.805043,322.331084,767.227343,322.547150C768.763887,323.209471,770.348427,323.754365,771.967343,324.177150C772.397343,324.407150,772.967343,324.177150,773.357343,324.387150L773.357343,324.387150C773.677343,324.607150,774.117343,324.387150,774.447343,324.567150L774.447343,324.567150C774.627343,324.807150,774.987343,324.567150,775.207343,324.767150C775.246863,324.837885,775.335413,324.864450,775.407343,324.827150C775.657343,324.987150,776.057343,324.827150,776.267343,325.067150C776.647377,325.509758,777.113500,325.870408,777.637343,326.127150C777.906793,326.267655,778.227893,326.267655,778.497343,326.127150L779.797343,325.857150C780.413374,325.722220,781.051312,325.722220,781.667343,325.857150C781.677579,325.886336,781.700744,325.909143,781.730085,325.918924C781.759427,325.928704,781.791643,325.924357,781.817343,325.907150C782.247343,325.957150,781.957343,326.347150,782.237343,326.467150Z" transform="matrix(1 0 0 1 -181.68556830999995 -93.40805984999969)" fill="rgb(30,30,30)" stroke="none" stroke-width="1"/><path id="birdscloud-bird4" d="M806.522535,372.930211C807.407471,372.338635,808.520381,372.201376,809.522535,372.560211C809.644609,372.615507,809.780460,372.632923,809.912535,372.610211C810.969290,372.336246,812.091454,372.657959,812.842535,373.450211C813.476241,373.936551,814.293319,374.116088,815.072535,373.940211C816.002535,373.820211,816.012535,373.860211,816.072535,374.650211C816.072535,374.930211,816.072535,375.220211,816.142535,375.570211C815.142535,375.570211,814.292535,374.950211,813.142535,375.010211C813.592535,377.010211,812.142535,378.790211,812.692535,380.780211C811.147399,379.605017,810.187937,377.817425,810.062535,375.880211C809.352535,376.260211,809.172535,376.950211,808.562535,377.360211C808.025836,377.815813,807.438668,378.208377,806.812535,378.530211C806.522535,378.230211,806.812535,378.030211,806.952535,377.830211C807.732535,376.650211,807.842535,375.300211,808.472535,374.090211C808.642535,373.760211,808.292535,373.640211,808.082535,373.460211C807.722535,373.100211,807.042535,373.210211,806.522535,372.930211Z" transform="matrix(1 0 0 1 -228.98017640000018 -112.20801006499960)" fill="rgb(31,31,31)" stroke="none" stroke-width="1"/><path id="birdscloud-bird3" d="M880.658663,336.802898C881.236188,336.816460,881.807598,336.682213,882.318663,336.412898C883.883482,335.761263,885.625952,335.672903,887.248663,336.162898L888.138663,336.392898C888.008663,335.092898,889.038663,334.392898,890.048663,333.642898C891.022639,332.938983,892.048957,332.310488,893.118663,331.762898C893.325068,332.422941,893.156541,333.143007,892.678663,333.642898C891.678663,334.952898,891.758663,336.442898,891.608663,337.892898C891.608663,338.272898,891.748663,338.442898,892.218663,338.392898C892.398351,338.377918,892.578975,338.377918,892.758663,338.392898C894.188663,338.472898,894.758663,338.162898,894.598663,340.152898C893.028254,339.904177,891.425813,339.941443,889.868663,340.262898C888.483815,340.438182,887.079568,340.157332,885.868663,339.462898C885.673061,339.285261,885.411727,339.198150,885.148663,339.222898C884.906963,339.152895,884.650363,339.152895,884.408663,339.222898C884.408663,338.312898,885.488663,338.442898,886.088663,337.982898C885.542082,337.644436,884.897406,337.500000,884.258663,337.572898C883.018663,337.572898,881.788663,337.632898,880.548663,337.572898C880.118663,337.572898,879.548663,337.692898,879.548663,337.052898L879.498663,337.052898C879.778663,336.712898,880.268663,337.052898,880.588663,336.802898Z" transform="matrix(1 0 0 1 -260.93271076999935 -113.69200365499961)" fill="rgb(31,31,31)" stroke="none" stroke-width="1"/><path id="birdscloud-bird2" d="M856.373258,328.516517C856.503258,327.246517,857.373258,326.196517,857.913258,325.046517C858.183258,324.496517,858.573258,323.966517,858.913258,323.416517C858.993258,323.256517,858.913258,323.056517,859.223258,323.016517C859.480402,322.956895,859.745860,323.075329,859.873258,323.306517C860.173258,323.896517,860.583258,324.466517,860.343258,325.156517C860.277170,325.439682,860.230395,325.727011,860.203258,326.016517C859.993258,326.316517,860.203258,326.666517,859.993258,327.016517C859.723936,327.664163,859.960427,328.411643,860.553258,328.786517C860.713258,328.986517,860.553258,329.266517,860.763258,329.456517L860.763258,329.456517C861.073258,329.706517,860.763258,330.086517,861.043258,330.336517L861.043258,330.336517C861.353258,330.586517,861.043258,330.966517,861.333258,331.206517L861.333258,331.206517C861.473258,331.696517,861.553258,332.206517,862.463258,331.896517C862.630824,331.888711,862.794654,331.844340,862.943258,331.766517C863.313258,331.586517,863.633258,331.536517,863.813258,332.016517C863.913258,332.306517,864.263258,332.526517,864.433258,332.806517C864.603258,333.086517,864.273258,333.136517,864.033258,333.186517C863.469756,333.036361,862.876760,333.036361,862.313258,333.186517L861.863258,333.186517C861.700208,333.380091,861.700208,333.662943,861.863258,333.856517L861.933258,334.266517C862.023258,334.456517,861.933258,334.506517,861.703258,334.476517C861.473258,334.446517,861.443258,334.246517,861.413258,334.116517C861.303258,333.696517,861.103258,333.586517,860.583258,333.796517C859.586893,334.165014,858.512654,334.271749,857.463258,334.106517C856.456723,333.935896,855.423154,334.028917,854.463258,334.376517C855.063258,333.646517,855.363258,332.716517,856.713258,332.676517C856.943258,332.676517,857.153258,332.346517,857.373258,332.166517C857.503563,331.905193,857.503563,331.597841,857.373258,331.336517L856.523258,329.876517C856.298271,329.459949,856.244464,328.972105,856.373258,328.516517Z" transform="matrix(1 0 0 1 -231.88742348000238 -80.22190205500129)" fill="rgb(30,30,30)" stroke="none" stroke-width="1"/><path id="birdscloud-bird1" d="M871.464882,363.525449C870.894882,363.195449,870.414882,362.785449,869.824882,362.525449C869.123201,362.200442,868.693944,361.477065,868.744882,360.705449C868.610083,360.172998,868.579522,359.619504,868.654882,359.075449C868.654882,358.745449,868.804882,358.495449,869.294882,358.755449C869.977297,359.086728,870.601950,359.525674,871.144882,360.055449C871.356355,360.200372,871.542229,360.379487,871.694882,360.585449C871.784882,361.375449,872.544882,361.825449,873.094882,362.365449C873.644882,362.905449,874.604882,363.565449,874.794882,364.475449C874.884882,364.865449,875.244882,364.985449,875.704882,364.915449C876.334882,365.165449,877.034882,364.855449,877.704882,365.115449L877.704882,365.115449C877.964882,365.385449,877.704882,365.755449,877.944882,366.025449L877.944882,366.025449C878.228333,366.412430,878.228333,366.938468,877.944882,367.325449C877.324882,367.325449,877.134882,366.775449,876.584882,366.695449C876.320202,366.621506,876.036278,366.698242,875.844882,366.895449L875.844882,366.895449C875.624882,367.085449,875.844882,367.355449,875.624882,367.565449L875.624882,367.985449C875.324882,368.245449,875.684882,368.645449,875.324882,368.875449C874.884882,369.425449,874.144882,369.695449,873.554882,370.255449C873.094471,369.462860,872.693374,368.637270,872.354882,367.785449C872.218879,367.507880,872.218879,367.183018,872.354882,366.905449C872.424882,366.675449,873.144882,366.465449,872.354882,366.205449C871.847695,366.064424,871.390323,365.783764,871.034882,365.395449C870.754882,365.055449,870.284882,365.105449,869.774882,365.025449C870.113789,364.621480,870.578711,364.343231,871.094882,364.235449C871.214882,364.015449,872.014882,364.135449,871.464882,363.525449Z" transform="matrix(1 0 0 1 -214.91010204999992 -120.39120740999971)" fill="rgb(31,31,31)" stroke="none" stroke-width="1"/></g><g id="birdscloud-bigcloud" transform="matrix(1 0 0 1 0.00364304000000 0)"><path id="birdscloud-path1" d="M112.460000,84.370000C112.460000,84.370000,106.580000,38.370000,136.460000,44.940000L160.800000,52.830000C160.800000,52.830000,168.650000,27.830000,180.680000,29.170000C192.710000,30.510000,210.480000,42.260000,203.680000,56.750000L196.900000,71.230000C196.900000,71.230000,213.790000,50.230000,227.510000,67.290000C241.230000,84.350000,227.510000,102.780000,227.510000,102.780000C227.510000,102.780000,240.760000,119.860000,233.610000,134.320000C226.460000,148.780000,203.670000,147.460000,203.670000,147.460000L189.850000,133C189.850000,133,158,184.270000,112,159.290000C112,159.290000,64.150000,115.920000,112.460000,84.370000Z" transform="matrix(1 0 0 1 62.81000000000000 0)" fill="rgb(252,220,226)" stroke="none" stroke-width="1"/><path id="birdscloud-path2" d="M470.900000,69.510000C470.900000,69.510000,465.020000,23.510000,494.900000,30.080000L519.210000,38C519.210000,38,527.050000,13,539.090000,14.340000C551.130000,15.680000,568.890000,27.440000,562.090000,41.920000L555.320000,56.400000C555.320000,56.400000,572.210000,35.400000,585.930000,52.460000C599.650000,69.520000,585.930000,87.950000,585.930000,87.950000C585.930000,87.950000,599.180000,105.040000,592.030000,119.490000C584.880000,133.940000,562.090000,132.640000,562.090000,132.640000L548.270000,118.180000C548.270000,118.180000,516.380000,169.440000,470.410000,144.470000C470.430000,144.430000,422.590000,101.050000,470.900000,69.510000Z" transform="matrix(1 0 0 1 62.81000000000000 0)" fill="rgb(252,220,226)" stroke="none" stroke-width="1"/><path id="birdscloud-path3" d="M638.070000,81.660000C638.070000,81.660000,632.180000,35.660000,662.070000,42.230000L686.410000,50.110000C686.410000,50.110000,694.250000,25.110000,706.280000,26.450000C718.310000,27.790000,736.080000,39.550000,729.280000,54.030000L722.510000,68.510000C722.510000,68.510000,739.390000,47.510000,753.110000,64.570000C766.830000,81.630000,753.110000,100.060000,753.110000,100.060000C753.110000,100.060000,766.370000,117.140000,759.210000,131.600000C752.050000,146.060000,729.280000,144.750000,729.280000,144.750000L715.460000,130.290000C715.460000,130.290000,683.570000,181.550000,637.600000,156.580000C637.600000,156.580000,589.760000,113.200000,638.070000,81.660000Z" transform="matrix(1 0 0 1 62.81000000000000 0)" fill="rgb(252,220,226)" stroke="none" stroke-width="1"/><path id="birdscloud-path4" d="M-41.220000,81.660000C-41.220000,81.660000,-47.110000,35.660000,-17.220000,42.230000L7.090000,50.110000C7.090000,50.110000,14.930000,25.110000,26.960000,26.450000C38.990000,27.790000,56.760000,39.550000,50,54L43.220000,68.510000C43.220000,68.510000,60.100000,47.510000,73.820000,64.570000C87.540000,81.630000,73.820000,100.060000,73.820000,100.060000C73.820000,100.060000,87.080000,117.140000,79.920000,131.600000C72.760000,146.060000,50,144.750000,50,144.750000L36.170000,130.290000C36.170000,130.290000,4.280000,181.550000,-41.690000,156.580000C-41.690000,156.580000,-89.530000,113.200000,-41.220000,81.660000Z" transform="matrix(1 0 0 1 62.81000000000000 0)" fill="rgb(252,220,226)" stroke="none" stroke-width="1"/><path id="birdscloud-path5" d="M292.500000,81.660000C292.500000,81.660000,286.620000,35.660000,316.500000,42.230000L340.840000,50.110000C340.840000,50.110000,348.690000,25.110000,360.720000,26.450000C372.750000,27.790000,390.520000,39.550000,383.720000,54.030000L376.950000,68.510000C376.950000,68.510000,393.840000,47.510000,407.560000,64.570000C421.280000,81.630000,407.560000,100.060000,407.560000,100.060000C407.560000,100.060000,420.810000,117.140000,413.660000,131.600000C406.510000,146.060000,383.720000,144.750000,383.720000,144.750000L369.900000,130.290000C369.900000,130.290000,338,181.550000,292,156.580000C292,156.580000,244.190000,113.200000,292.500000,81.660000Z" transform="matrix(1 0 0 1 62.81000000000000 0)" fill="rgb(252,220,226)" stroke="none" stroke-width="1"/><path id="birdscloud-path6" d="M126.150000,91.810000C126.150000,91.810000,120.270000,45.810000,150.150000,52.380000L174.490000,60.260000C174.490000,60.260000,182.340000,35.260000,194.370000,36.600000C206.400000,37.940000,224.170000,49.700000,217.370000,64.180000L210.600000,78.660000C210.600000,78.660000,227.490000,57.660000,241.210000,74.720000C254.930000,91.780000,241.210000,110.210000,241.210000,110.210000C241.210000,110.210000,254.460000,127.290000,247.310000,141.750000C240.160000,156.210000,217.370000,154.900000,217.370000,154.900000L203.550000,140.440000C203.550000,140.440000,171.660000,191.700000,125.690000,166.730000C125.680000,166.730000,77.840000,123.350000,126.150000,91.810000Z" transform="matrix(1 0 0 1 62.81000000000000 0)" fill="rgb(249,190,194)" stroke="none" stroke-width="1"/><path id="birdscloud-path7" d="M484.590000,76.940000C484.590000,76.940000,478.710000,30.940000,508.590000,37.510000L532.900000,45.400000C532.900000,45.400000,540.750000,20.400000,552.780000,21.740000C564.810000,23.080000,582.580000,34.830000,575.780000,49.310000L569,63.800000C569,63.800000,585.890000,42.800000,599.610000,59.850000C613.330000,76.900000,599.610000,95.340000,599.610000,95.340000C599.610000,95.340000,612.860000,112.430000,605.710000,126.890000C598.560000,141.350000,575.800000,140,575.800000,140L562,125.570000C562,125.570000,530.110000,176.830000,484.140000,151.860000C484.120000,151.860000,436.280000,108.490000,484.590000,76.940000Z" transform="matrix(1 0 0 1 62.81000000000000 0)" fill="rgb(249,190,194)" stroke="none" stroke-width="1"/><path id="birdscloud-path8" d="M651.760000,89.090000C651.760000,89.090000,645.870000,43.090000,675.760000,49.660000L700.100000,57.550000C700.100000,57.550000,707.940000,32.550000,719.970000,33.890000C732,35.230000,749.740000,47,743,61.460000L736.200000,76C736.200000,76,753.080000,55,766.800000,72C780.520000,89,766.800000,107.490000,766.800000,107.490000C766.800000,107.490000,780.060000,124.580000,772.900000,139.040000C765.740000,153.500000,743,152.180000,743,152.180000L729.180000,137.720000C729.180000,137.720000,697.260000,189,651.290000,164C651.290000,164,603.450000,120.630000,651.760000,89.090000Z" transform="matrix(1 0 0 1 62.81000000000000 0)" fill="rgb(249,190,194)" stroke="none" stroke-width="1"/><path id="birdscloud-path9" d="M-27.530000,89.090000C-27.530000,89.090000,-33.420000,43.090000,-3.530000,49.660000L20.810000,57.550000C20.810000,57.550000,28.650000,32.550000,40.680000,33.890000C52.710000,35.230000,70.480000,46.980000,63.680000,61.460000L56.910000,76C56.910000,76,73.790000,55,87.510000,72C101.230000,89,87.510000,107.490000,87.510000,107.490000C87.510000,107.490000,100.770000,124.580000,93.610000,139.040000C86.450000,153.500000,63.680000,152.180000,63.680000,152.180000L49.860000,137.720000C49.860000,137.720000,18,189,-28,164C-28,164,-75.840000,120.630000,-27.530000,89.090000Z" transform="matrix(1 0 0 1 57.94756555999984 -0.00000000000004)" fill="rgb(249,190,194)" stroke="none" stroke-width="1"/><path id="birdscloud-path10" d="M306.190000,89.090000C306.190000,89.090000,300.310000,43.090000,330.190000,49.660000L354.530000,57.550000C354.530000,57.550000,362.380000,32.550000,374.410000,33.890000C386.440000,35.230000,404.210000,46.980000,397.410000,61.460000L390.630000,76C390.630000,76,407.520000,55,421.240000,72C434.960000,89,421.240000,107.490000,421.240000,107.490000C421.240000,107.490000,434.490000,124.580000,427.340000,139.040000C420.190000,153.500000,397.400000,152.180000,397.400000,152.180000L383.580000,137.720000C383.580000,137.720000,351.690000,189,305.720000,164C305.720000,164,257.880000,120.630000,306.190000,89.090000Z" transform="matrix(1 0 0 1 62.81000000000000 0)" fill="rgb(249,190,194)" stroke="none" stroke-width="1"/></g><path id="birdscloud-goingdowncloud2" d="M234.360000,88.580000C234.360000,88.580000,228.870000,53.890000,256.700000,58.840000L279.390000,64.840000C279.390000,64.840000,286.700000,46,297.920000,47C309.140000,48,325.700000,56.870000,319.380000,67.800000L313.070000,78.720000C313.070000,78.720000,328.810000,62.860000,341.600000,75.720000C354.390000,88.580000,341.600000,102.490000,341.600000,102.490000C341.600000,102.490000,353.950000,115.370000,347.280000,126.270000C340.610000,137.170000,319.380000,136.180000,319.380000,136.180000L306.500000,125.280000C306.500000,125.280000,276.770000,163.940000,233.920000,145.100000C233.920000,145.070000,189.320000,112.370000,234.360000,88.580000Z" transform="matrix(1 0 0 1 62.81000000000000 0)" fill="rgb(248,177,186)" stroke="none" stroke-width="1"/><path id="birdscloud-goingdowncloud" d="M568.480000,77.370000C568.480000,77.370000,563,42.680000,590.830000,47.630000L613.510000,53.580000C613.510000,53.580000,620.830000,34.750000,632,35.740000C643.170000,36.730000,659.780000,45.610000,653.470000,56.540000L647.150000,67.460000C647.150000,67.460000,662.890000,51.600000,675.680000,64.460000C688.470000,77.320000,675.680000,91.220000,675.680000,91.220000C675.680000,91.220000,688.040000,104.110000,681.370000,115.010000C674.700000,125.910000,653.470000,124.920000,653.470000,124.920000L640.620000,114C640.620000,114,610.900000,152.700000,568,133.860000C568,133.860000,523.450000,101.160000,568.480000,77.370000Z" transform="matrix(1 0 0 1 62.81000000000000 0)" fill="rgb(248,177,186)" stroke="none" stroke-width="1"/><path id="birdscloud-rotatecloud3" d="M724.310000,86.530000C724.310000,86.530000,718.820000,51.840000,746.660000,56.800000L769.340000,62.740000C769.340000,62.740000,776.650000,43.910000,787.870000,44.900000C799.090000,45.890000,815.650000,54.780000,809.330000,65.700000L803,76.620000C803,76.620000,818.740000,60.760000,831.530000,73.620000C844.320000,86.480000,831.530000,100.380000,831.530000,100.380000C831.530000,100.380000,843.890000,113.260000,837.220000,124.160000C830.550000,135.060000,809.310000,134.080000,809.310000,134.080000L796.450000,123.200000C796.450000,123.200000,766.720000,161.860000,723.870000,143C723.870000,143,679.280000,110.320000,724.310000,86.530000Z" transform="matrix(0.99984769515639 0.01745240643728 -0.01745240643728 0.99984769515639 77.37416296499981 15.25214181000016)" fill="rgb(248,177,186)" stroke="none" stroke-width="1"/><path id="birdscloud-rotatecloud2" d="M91.100000,86.530000C91.100000,86.530000,85.610000,51.840000,113.440000,56.800000L136.130000,62.740000C136.130000,62.740000,143.440000,43.910000,154.660000,44.900000C165.880000,45.890000,182.440000,54.780000,176.120000,65.700000L169.810000,76.620000C169.810000,76.620000,185.550000,60.760000,198.340000,73.620000C211.130000,86.480000,198.340000,100.380000,198.340000,100.380000C198.340000,100.380000,210.690000,113.260000,204.020000,124.160000C197.350000,135.060000,176.120000,134.080000,176.120000,134.080000L163.240000,123.200000C163.240000,123.200000,133.510000,161.860000,90.660000,143C90.660000,143,46.070000,110.320000,91.100000,86.530000Z" transform="matrix(0.98480775301221 0.17364817766693 -0.17364817766693 0.98480775301221 62.81000000000000 0)" fill="rgb(248,177,186)" stroke="none" stroke-width="1"/><path id="birdscloud-rotatecloud" d="M402.180000,86.530000C402.180000,86.530000,396.700000,51.840000,424.530000,56.800000L447.220000,62.740000C447.220000,62.740000,454.530000,43.910000,465.740000,44.900000C476.950000,45.890000,493.520000,54.780000,487.210000,65.700000L480.890000,76.620000C480.890000,76.620000,496.640000,60.760000,509.430000,73.620000C522.220000,86.480000,509.430000,100.380000,509.430000,100.380000C509.430000,100.380000,521.780000,113.260000,515.110000,124.160000C508.440000,135.060000,487.210000,134.080000,487.210000,134.080000L474.330000,123.200000C474.330000,123.200000,444.600000,161.860000,401.750000,143C401.750000,143,357.150000,110.320000,402.180000,86.530000Z" transform="matrix(1 0 0 1 56.24020385500052 5.83012529500000)" fill="rgb(248,177,186)" stroke="none" stroke-width="1"/><script><![CDATA[!function(t,n){"object"==typeof exports&&"undefined"!=typeof module?module.exports=n():"function"==typeof define&&define.amd?define(n):(t=t||self).__SVGATOR_PLAYER__=n()}(this,(function(){"use strict";function t(n){return(t="function"==typeof Symbol&&"symbol"==typeof Symbol.iterator?function(t){return typeof t}:function(t){return t&&"function"==typeof Symbol&&t.constructor===Symbol&&t!==Symbol.prototype?"symbol":typeof t})(n)}function n(t,n){if(!(t instanceof n))throw new TypeError("Cannot call a class as a function")}function r(t,n){for(var r=0;r<n.length;r++){var e=n[r];e.enumerable=e.enumerable||!1,e.configurable=!0,"value"in e&&(e.writable=!0),Object.defineProperty(t,e.key,e)}}function e(t,n,e){return n&&r(t.prototype,n),e&&r(t,e),t}function i(t){return(i=Object.setPrototypeOf?Object.getPrototypeOf:function(t){return t.__proto__||Object.getPrototypeOf(t)})(t)}function o(t,n){return(o=Object.setPrototypeOf||function(t,n){return t.__proto__=n,t})(t,n)}function u(t,n){return!n||"object"!=typeof n&&"function"!=typeof n?function(t){if(void 0===t)throw new ReferenceError("this hasn't been initialised - super() hasn't been called");return t}(t):n}function a(t){var n=function(){if("undefined"==typeof Reflect||!Reflect.construct)return!1;if(Reflect.construct.sham)return!1;if("function"==typeof Proxy)return!0;try{return Date.prototype.toString.call(Reflect.construct(Date,[],(function(){}))),!0}catch(t){return!1}}();return function(){var r,e=i(t);if(n){var o=i(this).constructor;r=Reflect.construct(e,arguments,o)}else r=e.apply(this,arguments);return u(this,r)}}function l(t,n,r){return(l="undefined"!=typeof Reflect&&Reflect.get?Reflect.get:function(t,n,r){var e=function(t,n){for(;!Object.prototype.hasOwnProperty.call(t,n)&&null!==(t=i(t)););return t}(t,n);if(e){var o=Object.getOwnPropertyDescriptor(e,n);return o.get?o.get.call(r):o.value}})(t,n,r||t)}var f=Math.abs;function s(t){return t}function c(t,n,r){var e=1-r;return 3*r*e*(t*e+n*r)+r*r*r}function h(){var t=arguments.length>0&&void 0!==arguments[0]?arguments[0]:0,n=arguments.length>1&&void 0!==arguments[1]?arguments[1]:0,r=arguments.length>2&&void 0!==arguments[2]?arguments[2]:1,e=arguments.length>3&&void 0!==arguments[3]?arguments[3]:1;return t<0||t>1||r<0||r>1?null:f(t-n)<=1e-5&&f(r-e)<=1e-5?s:function(i){if(i<=0)return t>0?i*n/t:0===n&&r>0?i*e/r:0;if(i>=1)return r<1?1+(i-1)*(e-1)/(r-1):1===r&&t<1?1+(i-1)*(n-1)/(t-1):1;for(var o,u=0,a=1;u<a;){var l=c(t,r,o=(u+a)/2);if(f(i-l)<1e-5)break;l<i?u=o:a=o}return c(n,e,o)}}function v(){return 1}function y(t){return 1===t?1:0}function d(){var t=arguments.length>0&&void 0!==arguments[0]?arguments[0]:1,n=arguments.length>1&&void 0!==arguments[1]?arguments[1]:0;if(1===t){if(0===n)return y;if(1===n)return v}var r=1/t;return function(t){return t>=1?1:(t+=n*r)-t%r}}function g(t){var n=arguments.length>1&&void 0!==arguments[1]?arguments[1]:2;if(Number.isInteger(t))return t;var r=Math.pow(10,n);return Math.round(t*r)/r}var p=Math.PI/180;function m(t,n,r){return t>=.5?r:n}function w(t,n,r){return 0===t||n===r?n:t*(r-n)+n}function b(t,n,r){var e=w(t,n,r);return e<=0?0:e}function k(t,n,r){return 0===t?n:1===t?r:{x:w(t,n.x,r.x),y:w(t,n.y,r.y)}}function x(t,n,r){var e=function(t,n,r){return Math.round(w(t,n,r))}(t,n,r);return e<=0?0:e>=255?255:e}function A(t,n,r){return 0===t?n:1===t?r:{r:x(t,n.r,r.r),g:x(t,n.g,r.g),b:x(t,n.b,r.b),a:w(t,null==n.a?1:n.a,null==r.a?1:r.a)}}function _(t,n,r){if(0===t)return n;if(1===t)return r;var e=n.length;if(e!==r.length)return m(t,n,r);for(var i=[],o=0;o<e;o++)i.push(A(t,n[o],r[o]));return i}function S(t,n){for(var r=[],e=0;e<t;e++)r.push(n);return r}function O(t,n){if(--n<=0)return t;var r=(t=Object.assign([],t)).length;do{for(var e=0;e<r;e++)t.push(t[e])}while(--n>0);return t}var M,j=function(){function t(r){n(this,t),this.list=r,this.length=r.length}return e(t,[{key:"setAttribute",value:function(t,n){for(var r=this.list,e=0;e<this.length;e++)r[e].setAttribute(t,n)}},{key:"removeAttribute",value:function(t){for(var n=this.list,r=0;r<this.length;r++)n[r].removeAttribute(t)}},{key:"style",value:function(t,n){for(var r=this.list,e=0;e<this.length;e++)r[e].style[t]=n}}]),t}(),F=/-./g,P=function(t,n){return n.toUpperCase()};function I(t){return"function"==typeof t?t:m}function q(t){return t?"function"==typeof t?t:Array.isArray(t)?function(t){var n=arguments.length>1&&void 0!==arguments[1]?arguments[1]:s;if(!Array.isArray(t))return n;switch(t.length){case 1:return d(t[0])||n;case 2:return d(t[0],t[1])||n;case 4:return h(t[0],t[1],t[2],t[3])||n}return n}(t,null):function(t,n){var r=arguments.length>2&&void 0!==arguments[2]?arguments[2]:s;switch(t){case"linear":return s;case"steps":return d(n.steps||1,n.jump||0)||r;case"bezier":case"cubic-bezier":return h(n.x1||0,n.y1||0,n.x2||0,n.y2||0)||r}return r}(t.type,t.value,null):null}function B(t,n,r){var e=arguments.length>3&&void 0!==arguments[3]&&arguments[3],i=n.length-1;if(t<=n[0].t)return e?[0,0,n[0].v]:n[0].v;if(t>=n[i].t)return e?[i,1,n[i].v]:n[i].v;var o,u=n[0],a=null;for(o=1;o<=i;o++){if(!(t>n[o].t)){a=n[o];break}u=n[o]}return null==a?e?[i,1,n[i].v]:n[i].v:u.t===a.t?e?[o,1,a.v]:a.v:(t=(t-u.t)/(a.t-u.t),u.e&&(t=u.e(t)),e?[o,t,r(t,u.v,a.v)]:r(t,u.v,a.v))}function R(t,n){var r=arguments.length>2&&void 0!==arguments[2]?arguments[2]:null;return t&&t.length?"function"!=typeof n?null:("function"!=typeof r&&(r=null),function(e){var i=B(e,t,n);return null!=i&&r&&(i=r(i)),i}):null}function E(t,n){return t.t-n.t}function T(n,r,e,i,o){var u,a="@"===e[0],l="#"===e[0],f=M[e],s=m;switch(a?(u=e.substr(1),e=u.replace(F,P)):l&&(e=e.substr(1)),t(f)){case"function":if(s=f(i,o,B,q,e,a,r,n),l)return s;break;case"string":s=R(i,I(f));break;case"object":if((s=R(i,I(f.i),f.f))&&"function"==typeof f.u)return f.u(r,s,e,a,n)}return s?function(t,n,r){var e=arguments.length>3&&void 0!==arguments[3]&&arguments[3];if(e)return t instanceof j?function(e){return t.style(n,r(e))}:function(e){return t.style[n]=r(e)};if(Array.isArray(n)){var i=n.length;return function(e){var o=r(e);if(null==o)for(var u=0;u<i;u++)t[u].removeAttribute(n);else for(var a=0;a<i;a++)t[a].setAttribute(n,o)}}return function(e){var i=r(e);null==i?t.removeAttribute(n):t.setAttribute(n,i)}}(r,e,s,a):null}function z(n,r,e,i){if(!i||"object"!==t(i))return null;var o=null,u=null;return Array.isArray(i)?u=function(t){if(!t||!t.length)return null;for(var n=0;n<t.length;n++)t[n].e&&(t[n].e=q(t[n].e));return t.sort(E)}(i):(u=i.keys,o=i.data||null),u?T(n,r,e,u,o):null}function C(t,n,r){if(!r)return null;var e=[];for(var i in r)if(r.hasOwnProperty(i)){var o=z(t,n,i,r[i]);o&&e.push(o)}return e.length?e:null}function D(t,n){if(!n.duration||n.duration<0)return null;var r=function(t,n){if(!n)return null;var r=[];if(Array.isArray(n))for(var e=n.length,i=0;i<e;i++){var o=n[i];if(2===o.length){var u=null;if("string"==typeof o[0])u=t.getElementById(o[0]);else if(Array.isArray(o[0])){u=[];for(var a=0;a<o[0].length;a++)if("string"==typeof o[0][a]){var l=t.getElementById(o[0][a]);l&&u.push(l)}u=u.length?1===u.length?u[0]:new j(u):null}if(u){var f=C(t,u,o[1]);f&&(r=r.concat(f))}}}else for(var s in n)if(n.hasOwnProperty(s)){var c=t.getElementById(s);if(c){var h=C(t,c,n[s]);h&&(r=r.concat(h))}}return r.length?r:null}(t,n.elements);return r?function(t,n){var r=arguments.length>2&&void 0!==arguments[2]?arguments[2]:1/0,e=arguments.length>3&&void 0!==arguments[3]?arguments[3]:1,i=arguments.length>4&&void 0!==arguments[4]&&arguments[4],o=arguments.length>5&&void 0!==arguments[5]?arguments[5]:1,u=t.length,a=e>0?n:0;i&&r%2==0&&(a=n-a);var l=null;return function(f,s){var c=f%n,h=1+(f-c)/n;s*=e,i&&h%2==0&&(s=-s);var v=!1;if(h>r)c=a,v=!0,-1===o&&(c=e>0?0:n);else if(s<0&&(c=n-c),c===l)return!1;l=c;for(var y=0;y<u;y++)t[y](c);return v}}(r,n.duration,n.iterations||1/0,n.direction||1,!!n.alternate,n.fill||1):null}function N(t,n){if(M=n,!t||!t.root||!Array.isArray(t.animations))return null;var r=window.document.getElementById(t.root);if(!r)return null;var e=t.animations.map((function(t){return D(r,t)})).filter((function(t){return!!t}));return e.length?{element:r,animations:e,animationSettings:t.animationSettings,options:t.options||void 0}:null}var L=function(){function t(r,e){var i=arguments.length>2&&void 0!==arguments[2]?arguments[2]:{};n(this,t),this._id=0,this._running=!1,this._rollingBack=!1,this._animations=r,this.duration=e.duration,this.alternate=e.alternate,this.fill=e.fill,this.iterations=e.iterations,this.direction=i.direction||1,this.speed=i.speed||1,this.fps=i.fps||100,this.offset=i.offset||0,this.rollbackStartOffset=0}return e(t,[{key:"_rollback",value:function(){var t=this,n=1/0,r=null;this.rollbackStartOffset=this.offset,this._rollingBack||(this._rollingBack=!0,this._running=!0);this._id=window.requestAnimationFrame((function e(i){if(t._rollingBack){null==r&&(r=i);var o=i-r,u=t.rollbackStartOffset-o,a=Math.round(u*t.speed);if(a>t.duration&&n!=1/0){var l=!!t.alternate&&a/t.duration%2>1,f=a%t.duration;a=(f+=l?t.duration:0)||t.duration}var s=t.fps?1e3/t.fps:0,c=Math.max(0,a);if(c<n-s){t.offset=c,n=c;for(var h=t._animations,v=h.length,y=0;y<v;y++)h[y](c,t.direction)}var d=!1;if(t.iterations>0&&-1===t.fill){var g=t.iterations*t.duration,p=g==a;a=p?0:a,t.offset=p?0:t.offset,d=a>g}a>0&&t.offset>=a&&!d?t._id=window.requestAnimationFrame(e):t.stop()}}))}},{key:"_start",value:function(){var t=this,n=arguments.length>0&&void 0!==arguments[0]?arguments[0]:0,r=-1/0,e=null,i={},o=function o(u){t._running=!0,null==e&&(e=u);var a=Math.round((u-e+n)*t.speed),l=t.fps?1e3/t.fps:0;if(a>r+l&&!t._rollingBack){t.offset=a,r=a;for(var f=t._animations,s=f.length,c=0,h=0;h<s;h++)i[h]?c++:(i[h]=f[h](a,t.direction),i[h]&&c++);if(c===s)return void t._stop()}t._id=window.requestAnimationFrame(o)};this._id=window.requestAnimationFrame(o)}},{key:"_stop",value:function(){this._id&&window.cancelAnimationFrame(this._id),this._running=!1,this._rollingBack=!1}},{key:"play",value:function(){!this._rollingBack&&this._running||(this._rollingBack=!1,this.rollbackStartOffset>this.duration&&(this.offset=this.rollbackStartOffset-(this.rollbackStartOffset-this.offset)%this.duration,this.rollbackStartOffset=0),this._start(this.offset))}},{key:"stop",value:function(){this._stop(),this.offset=0,this.rollbackStartOffset=0;var t=this.direction,n=this._animations;window.requestAnimationFrame((function(){for(var r=0;r<n.length;r++)n[r](0,t)}))}},{key:"reachedToEnd",value:function(){return this.iterations>0&&this.offset>=this.iterations*this.duration}},{key:"restart",value:function(){this._stop(),this.offset=0,this._start()}},{key:"pause",value:function(){this._stop()}},{key:"reverse",value:function(){this.direction=-this.direction}}],[{key:"build",value:function(n,r){return(n=N(n,r))?{el:n.element,options:n.options||{},player:new t(n.animations,n.animationSettings,n.options)}:null}}]),t}();!function(){for(var t=0,n=["ms","moz","webkit","o"],r=0;r<n.length&&!window.requestAnimationFrame;++r)window.requestAnimationFrame=window[n[r]+"RequestAnimationFrame"],window.cancelAnimationFrame=window[n[r]+"CancelAnimationFrame"]||window[n[r]+"CancelRequestAnimationFrame"];window.requestAnimationFrame||(window.requestAnimationFrame=function(n){var r=Date.now(),e=Math.max(0,16-(r-t)),i=window.setTimeout((function(){n(r+e)}),e);return t=r+e,i},window.cancelAnimationFrame=window.clearTimeout)}();var V=/\.0+$/g;function $(t){return Number.isInteger(t)?t+"":t.toFixed(6).replace(V,"")}function G(t){return t?null==t.a||t.a>=1?"rgb("+t.r+","+t.g+","+t.b+")":"rgba("+t.r+","+t.g+","+t.b+","+t.a+")":"transparent"}var H={f:null,i:function(t,n,r){return 0===t?n:1===t?r:{x:b(t,n.x,r.x),y:b(t,n.y,r.y)}},u:function(t,n){return function(r){var e=n(r);t.setAttribute("rx",$(e.x)),t.setAttribute("ry",$(e.y))}}},Q={f:null,i:function(t,n,r){return 0===t?n:1===t?r:{width:b(t,n.width,r.width),height:b(t,n.height,r.height)}},u:function(t,n){return function(r){var e=n(r);t.setAttribute("width",$(e.width)),t.setAttribute("height",$(e.height))}}},U=Math.sin,Y=Math.cos,Z=Math.acos,J=Math.asin,K=Math.tan,W=Math.atan2,X=Math.PI/180,tt=180/Math.PI,nt=Math.sqrt,rt=function(){function t(){var r=arguments.length>0&&void 0!==arguments[0]?arguments[0]:1,e=arguments.length>1&&void 0!==arguments[1]?arguments[1]:0,i=arguments.length>2&&void 0!==arguments[2]?arguments[2]:0,o=arguments.length>3&&void 0!==arguments[3]?arguments[3]:1,u=arguments.length>4&&void 0!==arguments[4]?arguments[4]:0,a=arguments.length>5&&void 0!==arguments[5]?arguments[5]:0;n(this,t),this.m=[r,e,i,o,u,a],this.i=null,this.w=null,this.s=null}return e(t,[{key:"point",value:function(t,n){var r=this.m;return{x:r[0]*t+r[2]*n+r[4],y:r[1]*t+r[3]*n+r[5]}}},{key:"translateSelf",value:function(){var t=arguments.length>0&&void 0!==arguments[0]?arguments[0]:0,n=arguments.length>1&&void 0!==arguments[1]?arguments[1]:0;if(!t&&!n)return this;var r=this.m;return r[4]+=r[0]*t+r[2]*n,r[5]+=r[1]*t+r[3]*n,this.w=this.s=this.i=null,this}},{key:"rotateSelf",value:function(){var t=arguments.length>0&&void 0!==arguments[0]?arguments[0]:0;if(t%=360){var n=U(t*=X),r=Y(t),e=this.m,i=e[0],o=e[1];e[0]=i*r+e[2]*n,e[1]=o*r+e[3]*n,e[2]=e[2]*r-i*n,e[3]=e[3]*r-o*n,this.w=this.s=this.i=null}return this}},{key:"scaleSelf",value:function(){var t=arguments.length>0&&void 0!==arguments[0]?arguments[0]:1,n=arguments.length>1&&void 0!==arguments[1]?arguments[1]:1;if(1!==t||1!==n){var r=this.m;r[0]*=t,r[1]*=t,r[2]*=n,r[3]*=n,this.w=this.s=this.i=null}return this}},{key:"skewSelf",value:function(t,n){if(n%=360,(t%=360)||n){var r=this.m,e=r[0],i=r[1],o=r[2],u=r[3];t&&(t=K(t*X),r[2]+=e*t,r[3]+=i*t),n&&(n=K(n*X),r[0]+=o*n,r[1]+=u*n),this.w=this.s=this.i=null}return this}},{key:"resetSelf",value:function(){var t=arguments.length>0&&void 0!==arguments[0]?arguments[0]:1,n=arguments.length>1&&void 0!==arguments[1]?arguments[1]:0,r=arguments.length>2&&void 0!==arguments[2]?arguments[2]:0,e=arguments.length>3&&void 0!==arguments[3]?arguments[3]:1,i=arguments.length>4&&void 0!==arguments[4]?arguments[4]:0,o=arguments.length>5&&void 0!==arguments[5]?arguments[5]:0,u=this.m;return u[0]=t,u[1]=n,u[2]=r,u[3]=e,u[4]=i,u[5]=o,this.w=this.s=this.i=null,this}},{key:"recomposeSelf",value:function(){var t=arguments.length>0&&void 0!==arguments[0]?arguments[0]:null,n=arguments.length>1&&void 0!==arguments[1]?arguments[1]:null,r=arguments.length>2&&void 0!==arguments[2]?arguments[2]:null,e=arguments.length>3&&void 0!==arguments[3]?arguments[3]:null,i=arguments.length>4&&void 0!==arguments[4]?arguments[4]:null;return this.isIdentity||this.resetSelf(),t&&(t.x||t.y)&&this.translateSelf(t.x,t.y),n&&this.rotateSelf(n),r&&(r.x&&this.skewSelf(r.x,0),r.y&&this.skewSelf(0,r.y)),!e||1===e.x&&1===e.y||this.scaleSelf(e.x,e.y),i&&(i.x||i.y)&&this.translateSelf(i.x,i.y),this}},{key:"decompose",value:function(){var t=arguments.length>0&&void 0!==arguments[0]?arguments[0]:0,n=arguments.length>1&&void 0!==arguments[1]?arguments[1]:0,r=this.m,e=r[0]*r[0]+r[1]*r[1],i=[[r[0],r[1]],[r[2],r[3]]],o=nt(e);if(0===o)return{origin:{x:r[4],y:r[5]},translate:{x:t,y:n},scale:{x:0,y:0},skew:{x:0,y:0},rotate:0};i[0][0]/=o,i[0][1]/=o;var u=r[0]*r[3]-r[1]*r[2]<0;u&&(o=-o);var a=i[0][0]*i[1][0]+i[0][1]*i[1][1];i[1][0]-=i[0][0]*a,i[1][1]-=i[0][1]*a;var l=nt(i[1][0]*i[1][0]+i[1][1]*i[1][1]);if(0===l)return{origin:{x:r[4],y:r[5]},translate:{x:t,y:n},scale:{x:o,y:0},skew:{x:0,y:0},rotate:0};i[1][0]/=l,i[1][1]/=l,a/=l;var f=0;return i[1][1]<0?(f=Z(i[1][1])*tt,i[0][1]<0&&(f=360-f)):f=J(i[0][1])*tt,u&&(f=-f),a=W(a,nt(i[0][0]*i[0][0]+i[0][1]*i[0][1]))*tt,{origin:{x:r[4],y:r[5]},translate:{x:t,y:n},scale:{x:o,y:l},skew:{x:a,y:0},rotate:f}}},{key:"toString",value:function(){return null===this.s&&(this.s="matrix("+this.m.map(it).join(" ")+")"),this.s}},{key:"determinant",get:function(){var t=this.m;return t[0]*t[3]-t[1]*t[2]}},{key:"isIdentity",get:function(){if(null===this.i){var t=this.m;this.i=1===t[0]&&0===t[1]&&0===t[2]&&1===t[3]&&0===t[4]&&0===t[5]}return this.i}}]),t}(),et=/\.0+$/;function it(t){return Number.isInteger(t)?t:t.toFixed(14).replace(et,"")}Object.freeze({M:2,L:2,Z:0,H:1,V:1,C:6,Q:4,T:2,S:4,A:7});function ot(t,n,r){return t+(n-t)*r}function ut(t,n,r){var e=arguments.length>3&&void 0!==arguments[3]&&arguments[3],i={x:ot(t.x,n.x,r),y:ot(t.y,n.y,r)};return e&&(i.a=at(t,n)),i}function at(t,n){return Math.atan2(n.y-t.y,n.x-t.x)}function lt(t,n,r,e){var i=1-e;return i*i*t+2*i*e*n+e*e*r}function ft(t,n,r,e){return 2*(1-e)*(n-t)+2*e*(r-n)}function st(t,n,r,e){var i=arguments.length>4&&void 0!==arguments[4]&&arguments[4],o={x:lt(t.x,n.x,r.x,e),y:lt(t.y,n.y,r.y,e)};return i&&(o.a=ct(t,n,r,e)),o}function ct(t,n,r,e){return Math.atan2(ft(t.y,n.y,r.y,e),ft(t.x,n.x,r.x,e))}function ht(t,n,r,e,i){var o=i*i;return i*o*(e-t+3*(n-r))+3*o*(t+r-2*n)+3*i*(n-t)+t}function vt(t,n,r,e,i){var o=1-i;return 3*(o*o*(n-t)+2*o*i*(r-n)+i*i*(e-r))}function yt(t,n,r,e,i){var o=arguments.length>5&&void 0!==arguments[5]&&arguments[5],u={x:ht(t.x,n.x,r.x,e.x,i),y:ht(t.y,n.y,r.y,e.y,i)};return o&&(u.a=dt(t,n,r,e,i)),u}function dt(t,n,r,e,i){return Math.atan2(vt(t.y,n.y,r.y,e.y,i),vt(t.x,n.x,r.x,e.x,i))}function gt(t,n,r){var e=arguments.length>3&&void 0!==arguments[3]&&arguments[3];if(mt(n)){if(wt(r))return st(n,r.start,r,t,e)}else if(mt(r)){if(n.end)return st(n,n.end,r,t,e)}else{if(n.end)return r.start?yt(n,n.end,r.start,r,t,e):st(n,n.end,r,t,e);if(r.start)return st(n,r.start,r,t,e)}return ut(n,r,t,e)}function pt(t,n,r){var e=gt(t,n,r,!0);return e.a=function(t){var n=arguments.length>1&&void 0!==arguments[1]&&arguments[1];return n?t+Math.PI:t}(e.a)/p,e}function mt(t){return!t.type||"corner"===t.type}function wt(t){return null!=t.start&&!mt(t)}var bt=new rt;var kt={f:$,i:w},xt={f:$,i:function(t,n,r){var e=w(t,n,r);return e<=0?0:e>=1?1:e}};function At(t,n,r,e,i,o,u,a){return n=function(t,n,r){for(var e,i,o,u=t.length-1,a={},l=0;l<=u;l++)(e=t[l]).e&&(e.e=n(e.e)),e.v&&"g"===(i=e.v).t&&i.r&&(o=r.getElementById(i.r))&&(a[i.r]=o.querySelectorAll("stop"));return a}(t,e,a),function(e){var i,o=r(e,t,_t);return o?"c"===o.t?G(o.v):"g"===o.t?(n[o.r]&&function(t,n){for(var r=0,e=t.length;r<e;r++)t[r].setAttribute("stop-color",G(n[r]))}(n[o.r],o.v),(i=o.r)?"url(#"+i+")":"none"):"none":"none"}}function _t(t,n,r){if(0===t)return n;if(1===t)return r;if(n&&r){var e=n.t;if(e===r.t)switch(n.t){case"c":return{t:e,v:A(t,n.v,r.v)};case"g":if(n.r===r.r)return{t:e,v:_(t,n.v,r.v),r:n.r}}}return m(t,n,r)}var St={fill:At,"fill-opacity":xt,stroke:At,"stroke-opacity":xt,"stroke-width":kt,"stroke-dashoffset":{f:$,i:w},"stroke-dasharray":{f:function(t){var n=arguments.length>1&&void 0!==arguments[1]?arguments[1]:" ";return t&&t.length?t.map($).join(n):""},i:function(t,n,r){var e,i,o,u=n.length,a=r.length;if(u!==a)if(0===u)n=S(u=a,0);else if(0===a)a=u,r=S(u,0);else{var l=(o=(e=u)*(i=a)/function(t,n){for(var r;n;)r=n,n=t%n,t=r;return t||1}(e,i))<0?-o:o;n=O(n,Math.floor(l/u)),r=O(r,Math.floor(l/a)),u=a=l}for(var f=[],s=0;s<u;s++)f.push(g(b(t,n[s],r[s]),6));return f}},opacity:xt,transform:function(n,r,e,i){if(!(n=function(n,r){if(!n||"object"!==t(n))return null;var e=!1;for(var i in n)n.hasOwnProperty(i)&&(n[i]&&n[i].length?(n[i].forEach((function(t){t.e&&(t.e=r(t.e))})),e=!0):delete n[i]);return e?n:null}(n,i)))return null;var o=function(t,i,o){var u=arguments.length>3&&void 0!==arguments[3]?arguments[3]:null;return n[t]?e(i,n[t],o):r&&r[t]?r[t]:u};return r&&r.a&&n.o?function(t){var r=e(t,n.o,pt);return bt.recomposeSelf(r,o("r",t,w,0)+r.a,o("k",t,k),o("s",t,k),o("t",t,k)).toString()}:function(t){return bt.recomposeSelf(o("o",t,gt,null),o("r",t,w,0),o("k",t,k),o("s",t,k),o("t",t,k)).toString()}},r:kt,"#size":Q,"#radius":H,_:function(t,n){if(Array.isArray(t))for(var r=0;r<t.length;r++)this[t[r]]=n;else this[t]=n}};return function(t){!function(t,n){if("function"!=typeof n&&null!==n)throw new TypeError("Super expression must either be null or a function");t.prototype=Object.create(n&&n.prototype,{constructor:{value:t,writable:!0,configurable:!0}}),n&&o(t,n)}(u,t);var r=a(u);function u(){return n(this,u),r.apply(this,arguments)}return e(u,null,[{key:"build",value:function(t){var n=l(i(u),"build",this).call(this,t,St),r=(n.el,n.options,n.player);return function(t){t.play()}(r),r}}]),u}(L)}));
__SVGATOR_PLAYER__.build({"root":"birdscloud","animations":[{"duration":3000,"direction":1,"iterations":1,"fill":1,"alternate":false,"elements":{"birdscloud-bird17":{"transform":{"keys":{"o":[{"t":0,"v":{"x":896.4604759049998,"y":126.40929478999993,"type":"corner"}},{"t":800,"v":{"x":573.2964949343341,"y":267.8465168236669,"type":"corner"}},{"t":1800,"v":{"x":333.12477926733357,"y":48.94728935966667,"type":"corner"}},{"t":2800,"v":{"x":114.59208586455547,"y":196.74271387327835,"type":"corner"}},{"t":3000,"v":{"x":41.20722386999976,"y":214.33901173000004,"type":"corner"}}]}},"opacity":[{"t":0,"v":1},{"t":3000,"v":0}]},"birdscloud-bird16":{"transform":{"keys":{"o":[{"t":0,"v":{"x":522.3267842100023,"y":-225.5485256200001,"type":"corner"}},{"t":800,"v":{"x":292.2596416900021,"y":-331.80869562500044,"type":"corner"}},{"t":1800,"v":{"x":-110.89668863999779,"y":-189.89904792500045,"type":"corner"}},{"t":3000,"v":{"x":-343.2689924349977,"y":-333.42065222500037,"type":"corner"}}]}}},"birdscloud-groupofbirds":{"transform":{"keys":{"o":[{"t":0,"v":{"x":224.19816202000084,"y":-135.97878167000067,"type":"corner"}},{"t":800,"v":{"x":108.23053454166745,"y":-53.15427775933432,"type":"corner"}},{"t":1800,"v":{"x":-41.2993976249993,"y":-186.24377308009213,"type":"corner"}},{"t":3000,"v":{"x":-364.413816045,"y":-79.92312069000099,"type":"corner"}}]}},"opacity":[{"t":0,"v":1},{"t":3000,"v":0}]},"birdscloud-bigcloud":{"transform":{"keys":{"o":[{"t":0,"v":{"x":0.003643040000000042,"y":0,"type":"corner"}},{"t":1600,"v":{"x":-19.99635696,"y":0,"type":"corner"}},{"t":3000,"v":{"x":-13.403898469999532,"y":1.1080433999999855,"type":"corner"}}]}}},"birdscloud-goingdowncloud2":{"transform":{"keys":{"o":[{"t":0,"v":{"x":62.81,"y":0,"type":"corner"}},{"t":2600,"v":{"x":56.25347285000004,"y":40.4051888099999,"type":"corner"}}]}}},"birdscloud-goingdowncloud":{"transform":{"keys":{"o":[{"t":0,"v":{"x":62.81,"y":0,"type":"corner"}},{"t":1600,"v":{"x":59.32854030499999,"y":17.700728230000067,"type":"corner"}},{"t":3000,"v":{"x":57.13658723000009,"y":-4.559271769999924,"type":"corner"}}]}}},"birdscloud-rotatecloud3":{"transform":{"data":{"o":{"x":77.37416296499981,"y":15.252141810000161,"type":"corner"}},"keys":{"r":[{"t":0,"v":1},{"t":1000,"v":0},{"t":2000,"v":1},{"t":3000,"v":0}]}}},"birdscloud-rotatecloud2":{"transform":{"data":{"o":{"x":62.81,"y":0,"type":"corner"}},"keys":{"r":[{"t":0,"v":10},{"t":1400,"v":0},{"t":3000,"v":0}]}}},"birdscloud-rotatecloud":{"transform":{"data":{"o":{"x":56.240203855000516,"y":5.830125295000002,"type":"corner"}},"keys":{"r":[{"t":0,"v":0},{"t":1400,"v":2},{"t":3000,"v":0}]}}}}}],"options":{"start":"load","hover":"freeze","click":"freeze","scroll":25,"exportedIds":"names","title":"birdscloud"},"animationSettings":{"duration":3000,"direction":1,"iterations":1,"fill":1,"alternate":false}})]]></script></svg>