<svg xmlns="http://www.w3.org/2000/svg" viewBox="0 0 1366 768">
  <defs>
    <style>
      .cls-1 {
        fill: #e66767;
      }
    </style>
  </defs>
  <g id="Layer_2" data-name="Layer 2">
    <g id="Layer_1-2" data-name="Layer 1">
      <path id="left-wave" class="cls-1" d="M73,768c-3.52-16.15-16-81.24,22-121,10.41-10.9,25.33-20.66,70-31,96.52-22.35,124.54.62,174-17,55.43-19.74,111.76-81.19,114-142,1.37-37.21-22.42-93.81-70-207a59.72,59.72,0,0,1-5-21c-1.94-41.39,41.27-85.94,88-99,25.34-7.08,39.51,1.21,63-5,28.23-7.46,64.5-34.41,94-125H0V768Z"/>
      <path id="right-wave" class="cls-1" d="M1366,0V768H758c19.1-69.58,47.93-94.35,71-104,14.35-6,18.9-3,67-9,54-6.75,81-10.12,102-20,5.09-2.4,62.11-30.21,82-89,12.33-36.43-1.17-50.58,3-87,8.46-73.88,73.84-101.82,106-150,31.54-47.25,44.66-134.26-41-309"/>
    </g>
  </g>
</svg>
