<svg xmlns="http://www.w3.org/2000/svg" viewBox="0 0 145.97 159.99">
  <defs>
    <style>
      .cls-1 {
        fill: #fff;
      }
    </style>
  </defs>
  <g id="Layer_2" data-name="Layer 2">
    <g id="Layer_1-2" data-name="Layer 1">
      <g id="white-logo">
        <g>
          <path class="cls-1" d="M108.56,170.26l9,.7-1.24,16-1.75-.14,1.13-14.6-7.29-.57Z" transform="translate(-49.45 -45.7)"/>
          <path class="cls-1" d="M94.94,181.62l6.63,1.91,1.51-5.26-5.29-1.52.38-1.3,5.28,1.53,1.78-6.17-6.93-2,.39-1.36,8.62,2.49-4.45,15.44L94.54,183Z" transform="translate(-49.45 -45.7)"/>
          <path class="cls-1" d="M94.91,169.32a7.62,7.62,0,0,0-.89-2.11,4.92,4.92,0,0,0-1.86-1.72,4,4,0,0,0-2.59-.57,2.53,2.53,0,0,0-1.85,1.41,2.36,2.36,0,0,0-.2,2.18,10.62,10.62,0,0,0,1.67,2.39l.61.75a9.26,9.26,0,0,1,1.89,3,3.74,3.74,0,0,1-.3,3.18,3.53,3.53,0,0,1-2.68,1.89A5.82,5.82,0,0,1,85,179a6.86,6.86,0,0,1-2.21-1.78A6.48,6.48,0,0,1,81.68,175l1.45-.53a8.59,8.59,0,0,0,.84,1.73,4.54,4.54,0,0,0,1.71,1.5,4,4,0,0,0,2.39.55,2,2,0,0,0,1.66-1.05,2.3,2.3,0,0,0,0-2.27,10.66,10.66,0,0,0-1.36-2l-1-1.3a7.65,7.65,0,0,1-1.91-3.2A4.49,4.49,0,0,1,89,163.42a6.11,6.11,0,0,1,3.92.78,10.92,10.92,0,0,1,1.42.93,6.73,6.73,0,0,1,1.08,1.05,7.11,7.11,0,0,1,.78,1.23,8.17,8.17,0,0,1,.53,1.47Z" transform="translate(-49.45 -45.7)"/>
          <path class="cls-1" d="M61.21,154.49l3.06,4,11.61-8.84,1.06,1.4L65.33,159.9l3,4-1.17.89L60,155.39Z" transform="translate(-49.45 -45.7)"/>
          <path class="cls-1" d="M69.79,138.18a6.35,6.35,0,0,1-.22,5.79,9.8,9.8,0,0,1-5.11,4,8.3,8.3,0,0,1-6.18.22,6.71,6.71,0,0,1-4.08-3.94,6.26,6.26,0,0,1,.22-5.69,9.56,9.56,0,0,1,5-4,8.77,8.77,0,0,1,6.25-.31A6.46,6.46,0,0,1,69.79,138.18Zm-1.4.46A4.7,4.7,0,0,0,65.33,136a8.13,8.13,0,0,0-5.65.54,8.46,8.46,0,0,0-3.62,2.8,4.19,4.19,0,0,0-.5,4.39,4.76,4.76,0,0,0,3.23,3,7.57,7.57,0,0,0,5-.43,8.05,8.05,0,0,0,4.32-3.38A4.79,4.79,0,0,0,68.39,138.64Z" transform="translate(-49.45 -45.7)"/>
          <path class="cls-1" d="M50.39,129.19l9.73-.88c2.15-.19,3.49-.68,4-1.48a4.88,4.88,0,0,0,.6-3.18,5.15,5.15,0,0,0-1.18-3.2c-.65-.68-2-.93-4.15-.73l-9.79.88-.16-1.74,9.68-.88q4-.35,5.42,1.11a7.14,7.14,0,0,1,1.72,4.52,6.37,6.37,0,0,1-.93,4.55c-.8,1-2.5,1.67-5.09,1.91l-9.7.87Z" transform="translate(-49.45 -45.7)"/>
          <path class="cls-1" d="M66,113.29,65.71,115l-15.87-2.54.69-4.34a5.59,5.59,0,0,1,1.8-3.65,4.35,4.35,0,0,1,3.56-.76,4.1,4.1,0,0,1,2.48,1.42,4.58,4.58,0,0,1,1.18,2.57l7.86-3.33-.33,2.06-7.47,3c0,.09-.13,1-.39,2.71ZM57.91,112l.27-1.66a4.88,4.88,0,0,0-.42-3.32,3,3,0,0,0-2.19-1.5,2.9,2.9,0,0,0-2.54.55,5.05,5.05,0,0,0-1.24,3l-.31,2Z" transform="translate(-49.45 -45.7)"/>
          <path class="cls-1" d="M58.29,88.06,56.4,92.73l13.54,5.46-.66,1.63L55.74,94.36,53.87,99l-1.37-.55,4.42-11Z" transform="translate(-49.45 -45.7)"/>
          <path class="cls-1" d="M65.33,77.08l-3.88,5.71L66,85.87l3.09-4.55,1.12.75-3.1,4.55,5.31,3.61,4-6,1.17.79-5,7.42-13.29-9,4.87-7.16Z" transform="translate(-49.45 -45.7)"/>
          <path class="cls-1" d="M80.12,82.41l-1.27,1.22L67.75,72l3.18-3a5.6,5.6,0,0,1,3.64-1.82,4.38,4.38,0,0,1,3.3,1.55A4.07,4.07,0,0,1,79,71.33a4.6,4.6,0,0,1-.61,2.76l8.27,2.1-1.52,1.44-7.78-2.09q-.07.1-2,1.92ZM74.48,76.5l1.22-1.16a4.88,4.88,0,0,0,1.67-2.9,3.32,3.32,0,0,0-3.2-3.62,5.14,5.14,0,0,0-2.77,1.62L70,71.79Z" transform="translate(-49.45 -45.7)"/>
          <path class="cls-1" d="M87.44,58.63l-5.89,3.59L84.4,66.9,89.1,64l.7,1.15L85.1,68l3.34,5.48,6.16-3.75L95.33,71l-7.66,4.67L79.31,61.93l7.4-4.51Z" transform="translate(-49.45 -45.7)"/>
          <path class="cls-1" d="M105.63,67.16,97.1,70.23,91.66,55.11l1.65-.59,5,13.78,6.87-2.47Z" transform="translate(-49.45 -45.7)"/>
          <path class="cls-1" d="M115.88,65.6l-9,1.35-2.4-15.88,1.74-.26,2.19,14.48,7.22-1.09Z" transform="translate(-49.45 -45.7)"/>
          <path class="cls-1" d="M126.62,51.44l-6.89-.35-.28,5.46,5.5.29-.07,1.34-5.5-.28-.33,6.41,7.2.37-.07,1.41-9-.46.83-16,8.65.45Z" transform="translate(-49.45 -45.7)"/>
          <path class="cls-1" d="M129.42,63.4a7.27,7.27,0,0,0,1.36,1.85A4.78,4.78,0,0,0,133,66.5a4,4,0,0,0,2.65,0,2.52,2.52,0,0,0,1.48-1.79,2.37,2.37,0,0,0-.31-2.17,10.47,10.47,0,0,0-2.18-1.94l-.76-.59a9.54,9.54,0,0,1-2.54-2.53,3.74,3.74,0,0,1-.43-3.16,3.51,3.51,0,0,1,2.18-2.46,5.77,5.77,0,0,1,3.78-.09A6.17,6.17,0,0,1,141,54.87l-1.3.85a8.24,8.24,0,0,0-1.21-1.49,4.59,4.59,0,0,0-2-1.07,4,4,0,0,0-2.45,0,2,2,0,0,0-1.37,1.39,2.28,2.28,0,0,0,.49,2.22A10.45,10.45,0,0,0,135,58.47l1.31,1a7.69,7.69,0,0,1,2.59,2.68,4.5,4.5,0,0,1-2.28,5.62,6.11,6.11,0,0,1-4,.13,10.86,10.86,0,0,1-1.59-.57,6.6,6.6,0,0,1-1.29-.78,5.91,5.91,0,0,1-1-1,7.42,7.42,0,0,1-.86-1.31Z" transform="translate(-49.45 -45.7)"/>
          <path class="cls-1" d="M166.74,121.5a1.85,1.85,0,0,1-1.67-2,1.76,1.76,0,0,1,.67-1.26,1.79,1.79,0,0,1,1.37-.42,1.85,1.85,0,0,1,1.67,2,1.8,1.8,0,0,1-.67,1.26A1.83,1.83,0,0,1,166.74,121.5Zm.54-5.46a1.87,1.87,0,0,1-1.68-2,1.82,1.82,0,0,1,.67-1.26,1.76,1.76,0,0,1,1.37-.41,1.86,1.86,0,0,1,1,3.29A1.76,1.76,0,0,1,167.28,116Zm3.14,22.58c-.24,0-.32-.47-.23-1.35l.67-7L186.42,123a.87.87,0,0,0,.6-.71.65.65,0,0,0-.67-.79.91.91,0,0,0-.5.09q-9,4.07-13.23,6.16a2.34,2.34,0,0,1-1,.29c-.34,0-.47-.38-.41-1l1.75-17.91c.09-.93.29-1.37.59-1.34.12,0,.38.23.78.67.57.61.93,1,1.09,1.13a8.76,8.76,0,0,0,1.55,1q.69.36.66.63a2.79,2.79,0,0,1-.63.7,1.91,1.91,0,0,0-.68,1.16l-.83,8.47c0,.39.06.59.28.61a.58.58,0,0,0,.32-.07c.19-.07.9-.39,2.15-1l6.09-2.9a3,3,0,0,1,1.59-.23A7.53,7.53,0,0,1,189,119.1a11.1,11.1,0,0,1,2.48,2,6,6,0,0,0,2.08,1.53c.49.2.73.37.72.5a5.55,5.55,0,0,1-1.45.83l-17.62,8.63a.07.07,0,0,0,0,0,2.84,2.84,0,0,0,.58.63c.39.36.57.63.55.8s-.39.4-1.14.86c-1.06.64-1.82,1.12-2.28,1.46a13.63,13.63,0,0,0-1.64,1.48C170.79,138.38,170.51,138.63,170.42,138.62Z" transform="translate(-49.45 -45.7)"/>
          <path class="cls-1" d="M162.35,150.57a1.39,1.39,0,0,1-.47-.37c-.11-.17-.06-.43.15-.8l1.49-2.65a7,7,0,0,1-3.19-4.31,6.41,6.41,0,0,1,.82-4.68,10.43,10.43,0,0,1,2.32-2.75c.47-.4.81-.55,1-.43s.16.52-.24,1.16a6.24,6.24,0,0,0-1.09,4.93,4.93,4.93,0,0,0,4.2,3.58,1.65,1.65,0,0,0,1.33-.37q.52-.45.75-.39t.42,1.23c.24,1.09.43,1.87.59,2.36a9,9,0,0,0,.86,1.79c.33.56.48.87.44.94s-.6.16-1.45-.12l-3.53-1.1-1.5,2.64c-.21.38-.43.56-.65.54a1.39,1.39,0,0,1-.52-.21Z" transform="translate(-49.45 -45.7)"/>
          <path class="cls-1" d="M153.14,160.6a.77.77,0,0,1,0-1.23l9.26-10.2a.76.76,0,0,1,1.22-.06l1.48,1.34a.76.76,0,0,1,.06,1.22l-1.7,1.87.91,1.54a4.14,4.14,0,0,1,.63,1.76,5.92,5.92,0,0,1-.38,2.57c-.3.73-.59,1.46-.89,2.21a6,6,0,0,0-.28,2,3.07,3.07,0,0,1-.11,1.09c-.18.2-.54.05-1.07-.43L157.54,160l-1.69,1.86a.77.77,0,0,1-1.23.07Zm6.9-3.35,1.32,1.2a2.09,2.09,0,0,0,.32-1.31,1.64,1.64,0,0,0-.51-1.12Z" transform="translate(-49.45 -45.7)"/>
          <path class="cls-1" d="M141.38,168.14a1.14,1.14,0,0,1-.23-.54c0-.21.13-.43.49-.66l2.11-1.4-.72-1.09a3.59,3.59,0,0,1-.61-3.11c.3-.63.6-1.25.89-1.88a5.47,5.47,0,0,0,.29-1.22.68.68,0,0,1,1-.68,5,5,0,0,0,1.24.21l2.07-.08a3.63,3.63,0,0,1,2.62,1.79l.72,1.08,2.11-1.4c.36-.24.63-.3.82-.18a1.4,1.4,0,0,1,.37.43l1.11,1.67a1.36,1.36,0,0,1,.24.53c0,.21-.13.43-.49.66l-5.21,3.45-2.7-4.07c-.25-.37-.59-.42-1-.13s-.53.62-.29,1l3.45,5.21,3.59-2.38c.48-.32.9-.2,1.27.36l1.1,1.66a5.66,5.66,0,0,1,.95,4.3,5.9,5.9,0,0,1-1,2.39c-.46.64-.94,1.27-1.41,1.91a6.36,6.36,0,0,0-.76,1.85,3.51,3.51,0,0,1-.36,1c-.23.15-.54-.08-.94-.68l-6.3-9.52-2.1,1.39c-.36.24-.63.3-.82.19a1.63,1.63,0,0,1-.39-.42Zm10.32,2.69,1,1.5a2.19,2.19,0,0,0,.63-1.2,1.6,1.6,0,0,0-.23-1.22Zm3.81,10.7a1.83,1.83,0,0,1-.27-1.4A1.76,1.76,0,0,1,156,179a1.87,1.87,0,0,1,2.86,1.92,1.82,1.82,0,0,1-.8,1.18,1.79,1.79,0,0,1-1.4.28A1.84,1.84,0,0,1,155.51,181.53Zm3.61-2.39a1.75,1.75,0,0,1-.27-1.4,1.77,1.77,0,0,1,.79-1.18,1.79,1.79,0,0,1,1.4-.28,1.86,1.86,0,0,1,1.46,2.2,1.8,1.8,0,0,1-.8,1.19,1.83,1.83,0,0,1-1.4.27A1.78,1.78,0,0,1,159.12,179.14Z" transform="translate(-49.45 -45.7)"/>
          <path class="cls-1" d="M131.13,169.65a3.62,3.62,0,0,1,.16-3.17q.68-.79,1.32-1.59a4.1,4.1,0,0,0,.51-1.11q.13-.45.36-.54a.77.77,0,0,1,.63.19,4,4,0,0,0,1.07.55l2,.4a3.62,3.62,0,0,1,2.12,2.37l.28.79,2.32-.82c.41-.15.69-.14.85,0a1.52,1.52,0,0,1,.25.5l.67,1.89a1.33,1.33,0,0,1,.11.58c0,.2-.23.38-.63.52l-5,1.78c-.41.14-.69.14-.85,0a1.52,1.52,0,0,1-.25-.5l-1.2-3.37a.54.54,0,0,0-.78-.37.55.55,0,0,0-.39.79l9.16,25.86a3.81,3.81,0,0,0,1.29,2,1.75,1.75,0,0,0,1.13.24c.36,0,.58.05.63.22s-.18.53-.67,1.26c-.69,1-1.16,1.78-1.42,2.26a13.43,13.43,0,0,0-.86,2.08,3.44,3.44,0,0,1-.47,1c-.21.07-.47-.3-.76-1.13Z" transform="translate(-49.45 -45.7)"/>
          <path class="cls-1" d="M126.82,201.47c0-.18.13-.34.46-.5a1.81,1.81,0,0,0,.9-.75,3.88,3.88,0,0,0,.16-2.35l-4.09-26.23,3.69-.57,5.18,33.26c.14.87.09,1.32-.13,1.35s-.37-.22-.89-.7a14.13,14.13,0,0,0-1.73-1.39c-.47-.31-1.26-.75-2.36-1.33C127.24,201.86,126.84,201.59,126.82,201.47Z" transform="translate(-49.45 -45.7)"/>
        </g>
        <g>
          <path class="cls-1" d="M160.13,48.74c-1.59-.8-3.17-1.62-4.77-2.4a2.84,2.84,0,0,0-2.47-.51,17.26,17.26,0,0,0,1.56,3.91c1.43,2.85,3.43,5.3,5.05,8,1.21,1.51,3,2.63,3.16,4.84,1.47,1.12.94,3.57,2.83,4.42.1,1.23,1,2.23,1.29,3.22.34,1.38.53,2.47,1.87,3.06-.54,2,1.37,2.9,2.25,4.18,1,1.51,1.4,3.57,3.35,4.42a6.06,6.06,0,0,1-4.77,2c-1.06,0-2.13,0-3.18.12-.68.06-1.27.45-1,1.31a12.52,12.52,0,0,1,.45,6.17c2.71-.94,4.74-2.55,7.23-3.59-.06,1.76-.92,2.91-1.66,4.46a6,6,0,0,0,3.31-3.61,3.75,3.75,0,0,1,2.73-2.29,28.63,28.63,0,0,0,9.52-4.66,9.34,9.34,0,0,0,1.89-1.65,7.77,7.77,0,0,1,6.68-3.57,2.17,2.17,0,0,0-1.75-1.15,12.51,12.51,0,0,1-3.73-1.09,2.63,2.63,0,0,0-2.46.19c-.76.35-1.48.79-2.23,1.16-2.4,1.18-4.63.37-6.05-2.25a19.77,19.77,0,0,1-1.76-5c-.25-1.12-.45-2.25-.68-3.37a11.85,11.85,0,0,0-3.15-6,52.67,52.67,0,0,0-11.19-8.9C161.65,49.68,160.89,49.2,160.13,48.74Z" transform="translate(-49.45 -45.7)"/>
          <path class="cls-1" d="M183.92,75.16a23.64,23.64,0,0,1,.73-7c.62-2.68-1.08-4.66-3.93-4.86-.58,0-1.1,0-1.22.65-.47,2.85-1,5.72.19,8.52C180.53,74.43,181.49,75,183.92,75.16Z" transform="translate(-49.45 -45.7)"/>
        </g>
        <path class="cls-1" d="M89.73,135.12a7.29,7.29,0,0,0-1.82.4,21.4,21.4,0,0,0-.29-2.17c-.24-1.07-.45-1.14-1.35-.62l-1.29.79c-.19.12-.38.31-.58.33a4.28,4.28,0,0,1-1.81,0c-.77-.29,0-1-.11-1.48a7.72,7.72,0,0,1-.16-1.68c0-.33-.19-.77,0-1,.93-1.4-.21-2.63-.25-4,0-1.09-1-1.68-1.76-2.85,1.42.8,2.85.59,3.67,1.78.35.5.65.23,1-.08a3,3,0,0,0,.78-3c-1-3.08.62-5.21,2.47-7.28.27-.29.57-.55.85-.83s.6-.41,1-.18a3.58,3.58,0,0,1,0,1.81,36,36,0,0,0-.61,6.46c-.18.62.44,1.15.21,1.77h0c-.2.49.27.92.15,1.4l0,0c-.28.33.14.68,0,1a.18.18,0,0,0,0,.27c-.14.38.28.77,0,1.15a5.5,5.5,0,0,0-1,2.13,1,1,0,0,0,.29,1l.88,1.44a4.6,4.6,0,0,1,.69,2.27.12.12,0,0,0,0,.2C90.5,134.9,89.81,134.72,89.73,135.12Z" transform="translate(-49.45 -45.7)"/>
        <path class="cls-1" d="M99.77,154.29a7.28,7.28,0,0,0-1.39.33,12,12,0,0,0-.13-1.36c-.14-.67-.29-.71-1-.34l-1,.56a1.6,1.6,0,0,1-.45.23,3.87,3.87,0,0,1-1.37.11c-.57-.15.07-.61,0-.94a4.07,4.07,0,0,1-.05-1c0-.22-.11-.49,0-.63.76-.93,0-1.66,0-2.49s-.69-1-1.21-1.74c1,.45,2.13.25,2.7,1,.25.31.48.12.72-.09a1.83,1.83,0,0,0,.72-1.92c-.59-1.91.69-3.33,2.18-4.72.21-.2.45-.38.68-.56s.47-.29.75-.16a1.91,1.91,0,0,1-.1,1.15,20.37,20.37,0,0,0-.73,4.12c-.16.4.28.71.09,1.12h0c-.18.33.16.57,0,.89l0,0c-.23.22.08.42,0,.64-.07.06-.07.11,0,.17-.12.24.18.48-.07.73a4,4,0,0,0-.88,1.39.52.52,0,0,0,.18.66l.61.87a2.36,2.36,0,0,1,.42,1.41c-.06,0-.07.08,0,.13C100.36,154.12,99.85,154,99.77,154.29Z" transform="translate(-49.45 -45.7)"/>
        <path class="cls-1" d="M110.88,95.78a16.26,16.26,0,0,1-3.2-2.87,21.33,21.33,0,0,0-4.12-3.75c-.59-.38-.53-.71-.34-1.27a6.27,6.27,0,0,1,2.9-3.42,3.73,3.73,0,0,0,1.4-1,10.06,10.06,0,0,0-1.76,0,8.46,8.46,0,0,1-2.93.23,2.43,2.43,0,0,0-1.94.73c-.45.37-.84.8-1.27,1.2a6.42,6.42,0,0,1-3.38,1.83,3.53,3.53,0,0,0-3.08,2.93c-.78,2.81-2.16,5.38-5.69,6.17a5.48,5.48,0,0,0-1.23.44c-1.11.51-1.07.86-.44,1.88A4.89,4.89,0,0,1,87,101.79c0,.19,0,.42.2.54s.53,0,.72-.21c1.22-1.17,2.45-2.36,3.66-3.55a5.85,5.85,0,0,1,1.39-1.07c.81-.41,1.21-.31,1.44.5a15.48,15.48,0,0,0,4.94,7.06,9.37,9.37,0,0,1,2.24,3.19,22.64,22.64,0,0,1,2.29,4.56c2.28-2.54,1.45-11.43-1.59-17.08a1.15,1.15,0,0,1,1.43.29,2.6,2.6,0,0,0,1.7.87c.17,0,.41,0,.48.1.66.88,1.71.87,2.69,1.17a31.84,31.84,0,0,0,4,1c1.09.18,2.19.31,3.66.52C114.31,98.17,112.33,97.27,110.88,95.78Z" transform="translate(-49.45 -45.7)"/>
        <path class="cls-1" d="M153.27,75.15a5.7,5.7,0,0,1-4.21.3c-4.75-1.13-8,1.18-11,4.11-.47.45-.9,1-1.55,1.67-1.85-4.66-5.23-6.15-8.6-7.65a58.88,58.88,0,0,0-9.69-3.5,10.74,10.74,0,0,0,4,6.12c4.42,3.54,6.56,8.84,9.23,13.76.7,1.3.6,2.05-.49,2.37a4.88,4.88,0,0,0-1.17.51c-3,1.72-4.72,1.2-1.12,8,2.79-3,6.73-3.33,10.39-4.38a10.51,10.51,0,0,0,7.21-6.77c.25-.66.41-1.45,1.17-1.55a2,2,0,0,1,1.54-.86c-1.41-3.24-3.61-1.66-5.66-2.67.5-2,1.91-2.63,3.29-3.28,2.65-1.25,5.42-2.27,8-3.67.91-.49,2.4-.6,1.26-2.79l.15.06c-1.15-.9-1.72.64-2.75.22Z" transform="translate(-49.45 -45.7)"/>
        <path class="cls-1" d="M111.45,154a12.05,12.05,0,0,1,2.54-2.45c.41-.38.91-.7,1.35-1.08.12-.11.14-.31.39-.24a.45.45,0,0,1,.33.47,2.56,2.56,0,0,1-.45,1.76,6.28,6.28,0,0,0-.45.69c-.27.18-.27.57-.55.74a1.59,1.59,0,0,0-.35,1.72c0,.23-.2.41-.12.65h0c.11.32-.28.54-.18.86h0c.11.32-.28.53-.16.85h0c-.11.47-.28,1,.51,1a.64.64,0,0,0,.39.06c.33,0,.58,0,.5.51a5.67,5.67,0,0,0,.11.9c0,.33-.25.22-.44.19a2.07,2.07,0,0,0-1.2-.61l-.33-.13a.57.57,0,0,0-.32.56l-.12.38c0,.19-.12.19-.25.09a1.14,1.14,0,0,1-.06-.4c.1-.4,0-.57-.45-.57a4,4,0,0,1-2.33-.79,3.83,3.83,0,0,0-2.22-.8c.73-.43,1.33-1.12,2.29-.7.17.08.45-.13.68-.2a1.08,1.08,0,0,0,.35-.72c0-.52,0-1,0-1.55A2.14,2.14,0,0,1,111.45,154Z" transform="translate(-49.45 -45.7)"/>
      </g>
    </g>
  </g>
</svg>
