<svg xmlns="http://www.w3.org/2000/svg" viewBox="0 0 192.96 192.96">
  <defs>
    <style>
      .cls-1 {
        fill: #e66667;
      }
    </style>
  </defs>
  <g id="Layer_2" data-name="Layer 2">
    <g id="Layer_1-2" data-name="Layer 1">
      <g id="transparent-logo">
        <path class="cls-1" d="M128.32,149.19a1.64,1.64,0,0,0-.23-1.22l-1.39.92,1,1.5A2.19,2.19,0,0,0,128.32,149.19Z"/>
        <path class="cls-1" d="M52.37,50.51a3.34,3.34,0,0,0-3.2-3.63A5.14,5.14,0,0,0,46.4,48.5L45,49.85l4.49,4.71,1.22-1.16A4.91,4.91,0,0,0,52.37,50.51Z"/>
        <path class="cls-1" d="M30.57,83.58a3,3,0,0,0-2.55.55,5.15,5.15,0,0,0-1.23,3L26.48,89l6.43,1,.27-1.66a4.88,4.88,0,0,0-.42-3.32A3,3,0,0,0,30.57,83.58Z"/>
        <path class="cls-1" d="M43.1,121a4.79,4.79,0,0,0,.28-4.26A4.71,4.71,0,0,0,40.33,114a8.13,8.13,0,0,0-5.65.54,8.54,8.54,0,0,0-3.62,2.8,4.19,4.19,0,0,0-.5,4.39,4.79,4.79,0,0,0,3.23,3,7.65,7.65,0,0,0,5-.44A8,8,0,0,0,43.1,121Z"/>
        <path class="cls-1" d="M135,135.32l1.31,1.19a2,2,0,0,0,.33-1.31,1.6,1.6,0,0,0-.52-1.12Z"/>
        <path class="cls-1" d="M96.48,0A96.48,96.48,0,1,0,193,96.48,96.49,96.49,0,0,0,96.48,0Zm58,42.08c.11-.67.64-.69,1.22-.65,2.84.2,4.55,2.18,3.93,4.86a23.64,23.64,0,0,0-.73,7c-2.43-.16-3.39-.72-4.23-2.64C153.48,47.8,154.05,44.93,154.52,42.08ZM130.38,24.43c1.6.77,3.18,1.59,4.77,2.39.76.46,1.52.94,2.29,1.4a52.81,52.81,0,0,1,11.19,8.89,12,12,0,0,1,3.15,6c.22,1.12.42,2.25.68,3.37a20,20,0,0,0,1.76,5c1.42,2.61,3.64,3.42,6.05,2.24.75-.37,1.47-.8,2.22-1.15a2.62,2.62,0,0,1,2.47-.19,13,13,0,0,0,3.73,1.09,2.14,2.14,0,0,1,1.75,1.15,7.77,7.77,0,0,0-6.69,3.56,8.74,8.74,0,0,1-1.88,1.65,28.26,28.26,0,0,1-9.52,4.66,3.78,3.78,0,0,0-2.74,2.29,5.91,5.91,0,0,1-3.3,3.61c.74-1.55,1.6-2.7,1.66-4.45-2.49,1-4.52,2.64-7.23,3.58a12.52,12.52,0,0,0-.45-6.17c-.25-.85.35-1.24,1-1.31,1.05-.1,2.12-.06,3.18-.12a6.05,6.05,0,0,0,4.77-2c-2-.85-2.32-2.92-3.36-4.43-.87-1.27-2.78-2.12-2.24-4.18-1.34-.59-1.54-1.68-1.87-3-.24-1-1.19-2-1.3-3.23-1.88-.85-1.35-3.3-2.82-4.42-.18-2.21-2-3.33-3.16-4.84-1.62-2.7-3.63-5.16-5.05-8a17.52,17.52,0,0,1-1.56-3.92A2.81,2.81,0,0,1,130.38,24.43Zm13.26,69.26a1.75,1.75,0,0,1-1.37.41,1.72,1.72,0,0,1-1.25-.67,1.77,1.77,0,0,1-.42-1.36,1.86,1.86,0,1,1,3,1.62Zm.14,4.2a1.84,1.84,0,0,1-.67,1.26,1.86,1.86,0,0,1-3-1.62,1.86,1.86,0,0,1,3.29-1A1.8,1.8,0,0,1,143.78,97.89ZM104.42,41.46a7.47,7.47,0,0,0,1.35,1.85,4.84,4.84,0,0,0,2.2,1.25,4,4,0,0,0,2.65,0,2.48,2.48,0,0,0,1.48-1.79,2.34,2.34,0,0,0-.3-2.17,10.47,10.47,0,0,0-2.18-1.94l-.76-.59a9.26,9.26,0,0,1-2.54-2.53,3.73,3.73,0,0,1-.43-3.16,3.51,3.51,0,0,1,2.18-2.46,5.77,5.77,0,0,1,3.78-.09A7,7,0,0,1,114.41,31a6.74,6.74,0,0,1,1.6,1.93l-1.3.84a8.6,8.6,0,0,0-1.21-1.49,4.59,4.59,0,0,0-2-1.07,4,4,0,0,0-2.46,0,2,2,0,0,0-1.36,1.4,2.27,2.27,0,0,0,.49,2.21A10.45,10.45,0,0,0,110,36.53l1.31,1a7.78,7.78,0,0,1,2.59,2.68,4.5,4.5,0,0,1-2.28,5.62,6.11,6.11,0,0,1-4,.13,9.81,9.81,0,0,1-1.59-.57,6.56,6.56,0,0,1-2.34-1.8,8,8,0,0,1-.85-1.31ZM93.05,27.64l8.64.45-.07,1.41-6.89-.35-.28,5.47,5.49.28-.07,1.34L94.38,36l-.33,6.41,7.2.37-.07,1.41-9-.46ZM78.86,90.89a22.64,22.64,0,0,0-2.29-4.56,9.57,9.57,0,0,0-2.24-3.18c-2.23-2-4.12-4.22-4.94-7.07-.23-.81-.64-.91-1.44-.5a5.89,5.89,0,0,0-1.39,1.08L62.9,80.21c-.19.18-.41.37-.72.21s-.22-.35-.2-.54A4.9,4.9,0,0,0,60.82,77c-.63-1-.68-1.36.43-1.88a6.1,6.1,0,0,1,1.24-.44c3.53-.78,4.91-3.36,5.69-6.17a3.53,3.53,0,0,1,3.08-2.93,6.47,6.47,0,0,0,3.38-1.82c.42-.4.81-.84,1.27-1.21a2.46,2.46,0,0,1,1.94-.73,8.23,8.23,0,0,0,2.93-.23,11.13,11.13,0,0,1,1.76,0,3.73,3.73,0,0,1-1.4,1A6.3,6.3,0,0,0,78.24,66c-.19.56-.25.89.33,1.27A21.1,21.1,0,0,1,82.7,71a15.68,15.68,0,0,0,3.2,2.87c1.44,1.49,3.43,2.39,5.31,3.93-1.47-.21-2.57-.34-3.66-.52a30.71,30.71,0,0,1-4-1c-1-.31-2-.3-2.68-1.18-.07-.09-.31-.08-.48-.1a2.54,2.54,0,0,1-1.7-.87,1.17,1.17,0,0,0-1.43-.29C80.31,79.46,81.14,88.35,78.86,90.89ZM75.15,125h0c-.17.32.17.57,0,.88v0c-.23.22.08.42,0,.64-.07.06-.07.12,0,.17-.12.25.18.48-.07.73a4,4,0,0,0-.88,1.4c-.14.27,0,.47.18.65l.6.87a2.23,2.23,0,0,1,.42,1.41c-.05,0-.06.09,0,.13,0,.33-.49.25-.57.5a6.58,6.58,0,0,0-1.39.34,12,12,0,0,0-.13-1.37c-.14-.67-.29-.7-1-.33l-1,.55a1.6,1.6,0,0,1-.45.23,3.87,3.87,0,0,1-1.37.11c-.57-.15.07-.61,0-.94a4.55,4.55,0,0,1,0-1.05c0-.21-.11-.48,0-.63.76-.93,0-1.66,0-2.49s-.7-1-1.21-1.74c1,.45,2.13.26,2.7,1,.25.3.48.12.72-.09a1.85,1.85,0,0,0,.72-1.93c-.59-1.91.69-3.33,2.18-4.72.21-.2.45-.37.68-.56s.47-.29.75-.16a1.91,1.91,0,0,1-.1,1.15,20.37,20.37,0,0,0-.73,4.12C74.9,124.24,75.35,124.55,75.15,125Zm6.13-96.1,2.19,14.49,7.22-1.09.21,1.4-9,1.35-2.4-15.89Zm-13,3.72,5,13.78,6.87-2.47.48,1.33L72.1,48.29,66.66,33.18Zm-6.61,2.9.74,1.21-5.89,3.59L59.4,45l4.7-2.87.69,1.15L60.1,46.1l3.33,5.49,6.16-3.76L70.33,49l-7.66,4.67L54.31,40ZM31.91,65.56l1.37.56L31.4,70.79l13.53,5.46-.66,1.63L30.74,72.42l-1.87,4.65-1.37-.55ZM25.53,86.21a5.63,5.63,0,0,1,1.79-3.65,4.38,4.38,0,0,1,3.57-.76,4.1,4.1,0,0,1,2.48,1.42,4.65,4.65,0,0,1,1.18,2.57l7.85-3.33-.33,2.06-7.46,3c0,.09-.13,1-.39,2.71L41,91.35l-.28,1.74L24.84,90.56Zm0,22.79-.16-1.75,9.74-.88c2.15-.19,3.48-.68,4-1.47a4.93,4.93,0,0,0,.6-3.19,5.15,5.15,0,0,0-1.18-3.2c-.65-.68-2-.92-4.16-.73l-9.78.88-.16-1.74,9.67-.87q4-.36,5.43,1.11a7.17,7.17,0,0,1,1.72,4.51,6.37,6.37,0,0,1-.93,4.55c-.8,1-2.5,1.67-5.1,1.91Zm3.66,13.35a6.26,6.26,0,0,1,.22-5.69,9.58,9.58,0,0,1,5-4,8.85,8.85,0,0,1,6.26-.31,6.46,6.46,0,0,1,4.12,3.88,6.35,6.35,0,0,1-.22,5.79,9.8,9.8,0,0,1-5.11,4,8.35,8.35,0,0,1-6.18.23A6.7,6.7,0,0,1,29.2,122.35ZM43.37,142l-1.18.9L35,133.45l1.17-.9,3.06,4,11.6-8.84,1.07,1.4L40.33,138Zm4.21-71.41-13.29-9,4.87-7.16,1.17.79-3.88,5.71L41,63.93l3.09-4.55,1.11.75-3.09,4.55,5.31,3.61,4.05-6,1.17.79Zm6.26-8.85L42.75,50.07l3.18-3a5.62,5.62,0,0,1,3.64-1.82,4.35,4.35,0,0,1,3.29,1.55A4.13,4.13,0,0,1,54,49.39a4.6,4.6,0,0,1-.62,2.76l8.27,2.1L60.12,55.7l-7.78-2.1c-.05.07-.71.71-2,1.92l4.73,4.95ZM59,102.8c.35.51.65.24.95-.07a3,3,0,0,0,.78-3c-.95-3.07.62-5.21,2.47-7.28.27-.29.57-.55.85-.82s.6-.42,1-.19a3.51,3.51,0,0,1,0,1.82,37.67,37.67,0,0,0-.61,6.45c-.17.62.45,1.15.22,1.78h0c-.2.49.27.91.15,1.39l0,0c-.28.33.14.68,0,1a.18.18,0,0,0,0,.27c-.14.38.28.77,0,1.15a5.67,5.67,0,0,0-1.05,2.13,1,1,0,0,0,.3,1c.3.48.59,1,.88,1.44a4.54,4.54,0,0,1,.69,2.26c-.08.07-.08.13,0,.2.07.53-.62.36-.7.75a7.76,7.76,0,0,0-1.82.4c-.1-.74-.13-1.47-.29-2.17-.25-1.07-.45-1.14-1.35-.62L60,111.6c-.2.12-.38.31-.59.33a4.07,4.07,0,0,1-1.8,0c-.77-.28,0-1-.11-1.48a7.63,7.63,0,0,1-.16-1.67c0-.34-.19-.78,0-1,.93-1.4-.21-2.63-.25-3.94,0-1.09-1-1.69-1.76-2.86C56.7,101.82,58.14,101.61,59,102.8Zm8.2,40.76a4,4,0,0,0-2.59-.58,2.53,2.53,0,0,0-1.85,1.41,2.33,2.33,0,0,0-.2,2.18A10.62,10.62,0,0,0,64.19,149l.61.75a9.43,9.43,0,0,1,1.89,3,3.71,3.71,0,0,1-.31,3.18,3.52,3.52,0,0,1-2.68,1.89A5.79,5.79,0,0,1,60,157a6.15,6.15,0,0,1-3.33-4l1.46-.53a7.64,7.64,0,0,0,.84,1.73,4.4,4.4,0,0,0,1.71,1.5,4,4,0,0,0,2.39.55,2,2,0,0,0,1.65-1.05,2.32,2.32,0,0,0,0-2.27,10.24,10.24,0,0,0-1.37-2l-1-1.3a7.76,7.76,0,0,1-1.91-3.2A4.49,4.49,0,0,1,64,141.48a6.1,6.1,0,0,1,3.92.78,11.06,11.06,0,0,1,1.43.93,6.27,6.27,0,0,1,1.07,1.05,6.09,6.09,0,0,1,.78,1.23,8,8,0,0,1,.53,1.47l-1.77.44a7.37,7.37,0,0,0-.9-2.11A4.72,4.72,0,0,0,67.16,143.56Zm10.7,19.88L69.54,161l.39-1.36,6.63,1.91,1.52-5.26-5.29-1.52.37-1.29L78.45,155l1.78-6.17-6.93-2,.39-1.36L82.31,148Zm7-27.69c.17.07.45-.14.68-.21a1.06,1.06,0,0,0,.35-.72c0-.51,0-1,0-1.55a2,2,0,0,1,.53-1.14A11.58,11.58,0,0,1,89,129.68c.41-.39.91-.71,1.35-1.09.12-.11.14-.31.38-.23a.43.43,0,0,1,.34.47,2.59,2.59,0,0,1-.45,1.76,4.82,4.82,0,0,0-.45.69c-.28.17-.27.56-.55.74a1.55,1.55,0,0,0-.35,1.71c0,.23-.2.41-.12.65h0c.11.32-.28.54-.18.86h0c.11.32-.29.53-.16.85h0c-.11.47-.29,1,.51,1a.8.8,0,0,0,.38.06c.34,0,.59,0,.51.5a5.67,5.67,0,0,0,.11.9c0,.34-.25.22-.44.19a2.07,2.07,0,0,0-1.2-.61l-.33-.13a.58.58,0,0,0-.32.56l-.12.38c0,.19-.12.19-.25.1a1.2,1.2,0,0,1-.06-.41c.1-.4,0-.57-.45-.57a4,4,0,0,1-2.33-.79,3.83,3.83,0,0,0-2.22-.8C83.33,136,83.94,135.33,84.9,135.75ZM91.36,165l-1.76-.13,1.13-14.61-7.28-.57.11-1.41,9,.7ZM97.22,54.28a10.7,10.7,0,0,1-4-6.12,60.16,60.16,0,0,1,9.69,3.5c3.37,1.5,6.75,3,8.59,7.66.66-.72,1.09-1.23,1.55-1.68,3-2.93,6.29-5.24,11-4.1a5.8,5.8,0,0,0,4.21-.3l0,0c1,.42,1.61-1.13,2.76-.23l-.15-.06c1.14,2.19-.35,2.3-1.26,2.79-2.59,1.41-5.36,2.42-8,3.67-1.38.65-2.79,1.3-3.29,3.28,2.05,1,4.25-.56,5.66,2.67a2,2,0,0,0-1.55.87c-.75.1-.91.88-1.16,1.54a10.51,10.51,0,0,1-7.21,6.77c-3.66,1-7.6,1.37-10.39,4.38-3.6-6.78-1.83-6.26,1.11-8a5.14,5.14,0,0,1,1.18-.51c1.09-.31,1.19-1.07.49-2.36C103.77,63.12,101.64,57.82,97.22,54.28ZM108,183.74c-.08,0-.38-.22-.89-.69a14.16,14.16,0,0,0-1.73-1.4c-.47-.31-1.26-.75-2.36-1.33-.77-.4-1.17-.67-1.19-.79s.12-.34.46-.5a1.69,1.69,0,0,0,.89-.75,3.87,3.87,0,0,0,.17-2.35L99.25,149.7l3.68-.57,5.19,33.26C108.26,183.26,108.21,183.71,108,183.74Zm25.9-24.81a1.88,1.88,0,0,1-2.2,1.46,1.82,1.82,0,0,1-1.18-.8,1.78,1.78,0,0,1-.27-1.4,1.88,1.88,0,0,1,2.19-1.46,1.8,1.8,0,0,1,1.19.8A1.83,1.83,0,0,1,133.89,158.93Zm3.61-2.39a1.86,1.86,0,0,1-2.2,1.46,1.76,1.76,0,0,1-1.18-.8,1.85,1.85,0,0,1,.52-2.58,1.75,1.75,0,0,1,1.4-.27,1.77,1.77,0,0,1,1.18.79A1.79,1.79,0,0,1,137.5,156.54Zm7.8-28.79-3.53-1.1-1.39,2.45a.88.88,0,0,1-.27.63l-1.7,1.87c.3.52.61,1,.91,1.54a4.28,4.28,0,0,1,.63,1.76,5.79,5.79,0,0,1-.39,2.57c-.29.73-.59,1.47-.88,2.21a6,6,0,0,0-.28,2,3.37,3.37,0,0,1-.11,1.09c-.18.2-.54.05-1.08-.43l-4.67-4.24-1.69,1.86h0a1.29,1.29,0,0,1-.41.39l-5.22,3.45-2.69-4.07c-.25-.37-.59-.41-1-.13s-.54.62-.29,1l3.45,5.21,3.59-2.38c.48-.32.9-.2,1.27.36l1.09,1.66a5.63,5.63,0,0,1,1,4.3,5.9,5.9,0,0,1-1,2.39L129.14,154a6.36,6.36,0,0,0-.75,1.85,3.36,3.36,0,0,1-.37,1c-.22.15-.53-.08-.93-.68l-6.3-9.51-2.1,1.38a1.07,1.07,0,0,1-.66.24l-4.88,1.73c-.4.15-.69.14-.84,0a1.52,1.52,0,0,1-.25-.5l-1.2-3.37a.54.54,0,0,0-.78-.37.56.56,0,0,0-.4.79l9.17,25.86a3.81,3.81,0,0,0,1.29,2,1.72,1.72,0,0,0,1.12.24c.37,0,.58.05.64.22s-.18.53-.67,1.26c-.69,1-1.17,1.78-1.42,2.26a12.43,12.43,0,0,0-.87,2.08,3,3,0,0,1-.47,1c-.21.07-.46-.3-.75-1.13l-11.59-32.71a3.59,3.59,0,0,1,.16-3.17q.67-.79,1.32-1.59a4.1,4.1,0,0,0,.5-1.11.56.56,0,0,1,1-.35,3.9,3.9,0,0,0,1.07.55l2,.4a3.63,3.63,0,0,1,2.13,2.37l.28.79,2.32-.82h0l1.76-1.17-.71-1.09a3.59,3.59,0,0,1-.61-3.11c.3-.63.6-1.25.88-1.88a5,5,0,0,0,.29-1.22,1,1,0,0,1,.3-.66,1,1,0,0,1,.73,0,4.91,4.91,0,0,0,1.23.21c.69,0,1.39,0,2.08-.08a3.59,3.59,0,0,1,2.61,1.79l.72,1.08,1.88-1.25,8.76-9.65a2.1,2.1,0,0,1,.13-.26l1.49-2.65a7.06,7.06,0,0,1-3.2-4.31,6.47,6.47,0,0,1,.83-4.68,10.43,10.43,0,0,1,2.32-2.75c.47-.4.81-.55,1-.43s.17.52-.23,1.16a6.2,6.2,0,0,0-1.09,4.93,4.94,4.94,0,0,0,4.19,3.58,1.66,1.66,0,0,0,1.33-.36c.36-.31.61-.44.76-.4s.25.45.42,1.23c.23,1.09.43,1.87.58,2.36a9.79,9.79,0,0,0,.87,1.79,2.58,2.58,0,0,1,.44.94C146.63,128.07,146.15,128,145.3,127.75ZM167.87,102l-17.62,8.63s0,0,0,0,.19.27.57.63.58.63.56.8-.39.4-1.14.86c-1.06.64-1.83,1.12-2.28,1.46a12.89,12.89,0,0,0-1.65,1.48c-.48.52-.77.77-.85.76-.24,0-.32-.47-.24-1.34l.68-7L161.42,101a.9.9,0,0,0,.6-.71.65.65,0,0,0-.67-.79.91.91,0,0,0-.5.09q-9,4.06-13.23,6.16a2.2,2.2,0,0,1-1,.29c-.34,0-.48-.38-.41-1l1.75-17.91c.09-.93.28-1.37.59-1.34.11,0,.37.24.78.68.56.6.93,1,1.09,1.13a9.27,9.27,0,0,0,1.54,1c.46.24.69.45.67.63a2.56,2.56,0,0,1-.64.7,2,2,0,0,0-.68,1.16l-.82,8.47c0,.39.05.59.28.61a.58.58,0,0,0,.32-.07c.18-.07.9-.39,2.14-1l6.1-2.9A2.92,2.92,0,0,1,160.9,96,7.34,7.34,0,0,1,164,97.17a11.43,11.43,0,0,1,2.49,2,5.92,5.92,0,0,0,2.08,1.53c.49.2.73.37.71.5A5.36,5.36,0,0,1,167.87,102Z"/>
      </g>
    </g>
  </g>
</svg>
