<svg id="pinksky-header" xmlns="http://www.w3.org/2000/svg" xmlns:xlink="http://www.w3.org/1999/xlink" viewBox="0 0 823.810000 436.390000" shape-rendering="geometricPrecision" text-rendering="geometricPrecision"><style><![CDATA[#pinksky-header-euop7x495dn73_to {animation: pinksky-header-euop7x495dn73_to__to 3000ms linear infinite normal forwards}@keyframes pinksky-header-euop7x495dn73_to__to { 0% {transform: translate(-68.617100px,6.550530px)} 50% {transform: translate(15.903048px,11.358760px)} 100% {transform: translate(-110.713664px,6.550531px)} }#pinksky-header-euop7x495dn74_to {animation: pinksky-header-euop7x495dn74_to__to 3000ms linear infinite normal forwards}@keyframes pinksky-header-euop7x495dn74_to__to { 0% {transform: translate(52.433200px,-8.938288px)} 50% {transform: translate(-88.608200px,5.245032px)} 100% {transform: translate(44.702154px,-8.938288px)} }]]></style><path id="pinksky-header-euop7x495dn72" d="M843.990417,170.966623C809.963287,173.502934,773.922886,157.238335,711.809196,164.662078C526.077780,186.860839,554.745637,193.777320,497.906153,211.241634C362.931872,252.716360,345.748171,125.892750,219.748546,125.892750C150.021286,125.892750,69.731438,170.982726,-0.010000,170.982726L-0.010000,1.380000L843.990417,1.380000Z" transform="matrix(1 0 0 1 -20.18040000000000 -4.38000000000000)" fill="rgb(255,204,204)" stroke="none" stroke-width="1"/><g id="pinksky-header-euop7x495dn73_to" transform="translate(-68.617100,6.550530)"><path id="pinksky-header-euop7x495dn73" d="M-11.836472,100C-11.290511,117.320000,40.927608,117.600000,68.080059,111.290000C98.411215,104.290000,103.555379,86.210000,124.690129,87.200000C148.615345,88.300000,153.723112,112,175.743531,112C197.763951,112,202.519876,88.130000,226.809066,86.410000C254.507478,84.410000,266.045450,114.340000,295.624394,113.510000C323.529058,112.720000,331.123979,85.510000,356.674945,86.410000C380.430307,87.220000,383.257171,111.050000,408.844534,113.510000C439.066498,116.410000,453.892368,84.940000,486.492294,87.160000C511.861274,88.880000,514.312031,108.660000,539.765938,109.740000C568.362152,110.960000,577.376571,86.510000,607.477211,87.160000C632.955382,87.710000,636.728578,105.520000,662.971095,105.980000C691.251865,106.470000,699.635396,85.980000,725.125700,87.910000C748.589883,89.670000,749.038784,107.580000,772.854808,110.500000C803.440746,114.240000,821.178406,86.980000,850.502568,91.680000C871.358271,95.010000,875.980740,110.920000,884.910232,109.740000C901.555971,107.530000,942.915535,17.930000,893.791195,17.150000C750.628137,14.900000,98.144301,9.630000,-20.814494,18.660000C-59.371460,21.610000,-12.928394,64.870000,-11.836472,100Z" transform="translate(0,0)" fill="rgb(229,127,127)" stroke="none" stroke-width="1"/></g><g id="pinksky-header-euop7x495dn74_to" transform="translate(52.433200,-8.938288)"><path id="pinksky-header-euop7x495dn74" d="M-39.744066,96.730000C-39.177164,117.790000,15.043899,118.120000,43.237845,110.460000C74.707226,101.900000,80.073902,80,102.019323,81.180000C126.862245,82.540000,132.165932,111.300000,155.043592,111.370000C177.921253,111.440000,182.834407,82.370000,208.055264,80.270000C236.816111,77.880000,248.796648,114.210000,279.510160,113.200000C308.485170,112.200000,316.371412,79.200000,342.902444,80.270000C367.581594,81.270000,370.504291,110.270000,397.073116,113.200000C428.454312,116.730000,443.848861,78.490000,477.699232,81.200000C504.041296,83.290000,506.598656,107.330000,533.016307,108.650000C562.709394,110.130000,572.069582,80.420000,603.324800,81.200000C629.780245,81.870000,633.698170,103.520000,660.947278,104.070000C690.325419,104.670000,699.017922,79.790000,725.485965,82.070000C749.850169,84.210000,750.316289,105.970000,775.045831,109.510000C806.804962,114.060000,825.222991,80.930000,855.671947,86.640000C877.327618,90.700000,882.127392,110.030000,891.411993,108.640000C908.784402,105.940000,951.730407,-3,900.721790,-3.900000C752.054790,-6.650000,74.556052,-13,-48.965678,-2.070000C-89.089769,1.500000,-40.890469,54.070000,-39.744066,96.730000Z" transform="translate(0,0)" fill="rgb(230,103,103)" stroke="none" stroke-width="1"/></g></svg>