<svg xmlns="http://www.w3.org/2000/svg" viewBox="0 0 330 600">
  <defs>
    <style>
      .cls-1 {
        fill: #e66767;
      }
    </style>
  </defs>
  <g id="Layer_2" data-name="Layer 2">
    <g id="Layer_1-2" data-name="Layer 1">
      <path class="cls-1" d="M92,600c-63-50.53-74.7-88-72-114,3.47-33.39,32.23-62.62,19-98-2.92-7.82-8.49-17.5-13-36-.62-2.54-5.15-21.43-5-38,.42-47.93,39.79-60.07,34-93-1.87-10.6-5.31-5.74-28-50-8-15.68-12.85-26.53-10-39,2.29-10,8.58-17,13-21-5.83-13.29-9.08-20-8-23,3.69-10.15,19.76-10.15,32-16C68,65.29,83.59,47.75,90,0H0V600Z"/>
      <path class="cls-1" d="M330,0V600c-23.78-15.24-52.35-39.34-57-73-3.93-28.48,12.93-37.24,29-87,7-21.73,27.24-87.05,6-155-9.18-29.39-14.76-22.91-20-46-13.33-58.75,25.33-89.31,26-154,.2-19-2.82-48.43-21-85"/>
    </g>
  </g>
</svg>
